<?xml version="1.0" encoding="UTF-8" standalone="no"?>
<svg
   version="1.1"
   width="2950"
   height="928"
   id="svg108"
   sodipodi:docname="logo_2.svg"
   inkscape:version="1.4.2 (ebf0e940, 2025-05-08)"
   xmlns:inkscape="http://www.inkscape.org/namespaces/inkscape"
   xmlns:sodipodi="http://sodipodi.sourceforge.net/DTD/sodipodi-0.dtd"
   xmlns="http://www.w3.org/2000/svg"
   xmlns:svg="http://www.w3.org/2000/svg">
  <defs
     id="defs108" />
  <sodipodi:namedview
     id="namedview108"
     pagecolor="#ffffff"
     bordercolor="#000000"
     borderopacity="0.25"
     inkscape:showpageshadow="2"
     inkscape:pageopacity="0.0"
     inkscape:pagecheckerboard="0"
     inkscape:deskcolor="#d1d1d1"
     inkscape:zoom="0.5"
     inkscape:cx="1384"
     inkscape:cy="-31"
     inkscape:window-width="2976"
     inkscape:window-height="1212"
     inkscape:window-x="0"
     inkscape:window-y="25"
     inkscape:window-maximized="0"
     inkscape:current-layer="svg108" />
  <path
     d="m 294,-22 c 11.22,0 22.44,0 34,0 0,52.8 0,105.6 0,160 2.31,0.33 4.62,0.66 7,1 2.4375,1.0625 2.4375,1.0625 4,2 0,0.66 0,1.32 0,2 1.65,0.33 3.3,0.66 5,1 0,0.66 0,1.32 0,2 0.66,0 1.32,0 2,0 0,0.66 0,1.32 0,2 0.73219,0.21914 1.46438,0.43828 2.21875,0.66406 7.9408,3.81426 12.90258,14.6199 15.85156,22.48047 3.65418,11.22356 5.15988,24.58222 0.92969,35.85547 -0.3532,0.94488 -0.70641,1.88977 -1.07031,2.86328 C 360.51977,218.47385 356.40998,226.25266 350,233 c -0.99,0 -1.98,0 -3,0 0,0.66 0,1.32 0,2 -3.46154,3 -3.46154,3 -6,3 0,0.66 0,1.32 0,2 -1.65,0.33 -3.3,0.66 -5,1 -0.014,0.88184 -0.014,0.88184 -0.0283,1.78149 C 335.54267,264.34781 331.56073,282.0561 319,300 c -0.66,0 -1.32,0 -2,0 -0.25137,0.57621 -0.50273,1.15242 -0.76172,1.74609 -1.39331,2.5361 -3.03017,4.24944 -5.05078,6.31641 -8.51485,9.50387 -9.44263,17.851 -11.1875,30.9375 19.14,0 38.28,0 58,0 0,-2.97 0,-5.94 0,-9 1.84283,-15.02342 7.51868,-29.9627 18,-41 0.64582,-0.71156 1.29164,-1.42313 1.95703,-2.15625 3.33264,-3.53611 3.33264,-3.53611 5.04297,-4.84375 0.99,0 1.98,0 3,0 0,-0.66 0,-1.32 0,-2 4.27415,-2.13708 8.29983,-2.7976 13,-2 2.81003,1.79364 4.5094,3.01881 6,6 0.38664,5.70293 -0.25857,10.54441 -1.5,16.125 -2.27721,10.44682 -1.67462,20.75549 -0.98438,31.34766 0.0699,1.0935 0.0699,1.0935 0.14112,2.2091 0.11339,1.77281 0.22818,3.54554 0.34326,5.31824 0.99558,-0.002 1.99117,-0.004 3.01692,-0.007 9.37325,-0.0202 18.74649,-0.0353 28.11976,-0.0451 4.81911,-0.005 9.63821,-0.0123 14.45731,-0.0236 4.64894,-0.0109 9.29787,-0.0168 13.94682,-0.0194 1.77544,-0.002 3.55089,-0.005 5.32633,-0.0109 2.48286,-0.007 4.96566,-0.008 7.44853,-0.008 0.73728,-0.004 1.47455,-0.007 2.23417,-0.0109 3.09599,0.006 5.4886,0.13723 8.45016,1.12442 0,0.66 0,1.32 0,2 0.55687,0.0825 1.11375,0.165 1.6875,0.25 4.76584,1.54568 7.32794,4.40232 9.5625,8.75 1.9734,4.1409 2.8734,7.80855 2.88422,12.39984 0.004,0.87961 0.009,1.75922 0.0135,2.66549 -2.8e-4,1.44307 -2.8e-4,1.44307 -5.6e-4,2.91529 0.004,1.02542 0.007,2.05084 0.0111,3.10733 0.011,3.44676 0.0149,6.89349 0.0187,10.34027 0.006,2.4671 0.0129,4.93419 0.0199,7.40128 0.0192,7.41112 0.0298,14.82224 0.0387,22.23338 0.004,3.49237 0.01,6.98474 0.015,10.47711 0.017,11.61352 0.0315,23.22704 0.0387,34.84057 0.002,3.01263 0.004,6.02527 0.006,9.0379 4.8e-4,0.74875 9.6e-4,1.4975 0.001,2.26894 0.008,12.12424 0.0336,24.24838 0.0661,36.37258 0.0331,12.45517 0.0511,24.91029 0.0543,37.36551 0.002,6.9901 0.0109,13.98005 0.0365,20.9701 0.024,6.57783 0.0275,13.15546 0.0172,19.73334 -4.9e-4,2.41143 0.006,4.82286 0.0196,7.23424 0.0177,3.29841 0.0106,6.5959 -0.003,9.89431 0.0165,1.42299 0.0165,1.42299 0.0332,2.87473 -0.0881,9.1951 -2.72467,16.72111 -9.25146,23.29748 -7.242,5.01082 -13.80054,6.14855 -22.48071,6.02441 -1.08396,5.9e-4 -2.16792,10e-4 -3.28473,0.002 -3.55508,-0.003 -7.10931,-0.0338 -10.66425,-0.0652 -2.47578,-0.007 -4.95156,-0.0131 -7.42735,-0.0172 -6.49545,-0.0152 -12.99054,-0.0545 -19.48585,-0.0988 -6.63631,-0.041 -13.27266,-0.0592 -19.90906,-0.0794 C 395.01153,632.1525 382.00585,632.08217 369,632 c 0.66,7.92 1.32,15.84 2,24 2.78437,0.10312 5.56875,0.20625 8.4375,0.3125 6.67668,0.30946 12.35172,1.04217 18.5625,3.6875 0,0.66 0,1.32 0,2 0.66,0 1.32,0 2,0 0,0.66 0,1.32 0,2 0.5775,0.20625 1.155,0.4125 1.75,0.625 3.51316,2.14693 5.63118,5.38994 6.85498,9.31567 0.4017,2.09414 0.52432,4.0029 0.52783,6.13355 10e-4,0.74959 0.003,1.49918 0.004,2.27148 -0.004,0.7728 -0.008,1.54559 -0.0117,2.3418 0.004,0.78439 0.008,1.56879 0.0117,2.37695 -0.01,5.80887 -0.01,5.80887 -1.13672,6.93555 -2.32307,0.10204 -4.61656,0.13888 -6.94029,0.13371 -1.10173,0.003 -1.10173,0.003 -2.22571,0.007 -2.47976,0.006 -4.95946,0.006 -7.43922,0.005 -1.77028,0.003 -3.54056,0.006 -5.31084,0.0102 -4.82224,0.009 -9.64446,0.0112 -14.46671,0.0118 -4.01864,9.4e-4 -8.03727,0.005 -12.05591,0.008 -9.47707,0.008 -18.95412,0.0106 -28.43119,0.01 -9.7924,-6e-4 -19.58474,0.01 -29.37713,0.0258 -8.39319,0.0131 -16.78636,0.0184 -25.17956,0.0178 -5.01911,-2.6e-4 -10.03818,0.003 -15.05728,0.0132 -4.71869,0.01 -9.43728,0.01 -14.15598,0.002 -1.73588,-10e-4 -3.47178,10e-4 -5.20765,0.007 -2.36187,0.008 -4.7234,0.003 -7.08525,-0.005 -0.69387,0.005 -1.38773,0.0103 -2.10262,0.0156 -4.73639,-0.0346 -4.73639,-0.0346 -6.96466,-2.26282 -0.84523,-8.50144 -1.31762,-17.84618 4,-25 3.00173,-3.12631 6.10168,-6.05084 10,-8 1.9996,-0.04 4.00047,-0.0435 6,0 0,-0.66 0,-1.32 0,-2 3.3,0 6.6,0 10,0 0,0.66 0,1.32 0,2 2.31,0 4.62,0 7,0 0.10957,-0.71543 0.21914,-1.43086 0.33203,-2.16797 1.08248,-6.80288 2.47267,-13.44283 4.17969,-20.11719 0.72696,-2.79742 0.72696,-2.79742 -0.51172,-5.71484 -0.33,0.33 -0.66,0.66 -1,1 -2.92062,0.10594 -5.81772,0.14678 -8.73901,0.14526 -1.37565,0.005 -1.37565,0.005 -2.77909,0.0102 -3.04997,0.01 -6.09988,0.0115 -9.14987,0.0125 -2.11412,0.003 -4.22824,0.007 -6.34236,0.0101 -4.4413,0.006 -8.88259,0.008 -13.3239,0.007 -5.68852,-10e-5 -11.37692,0.0135 -17.06541,0.0308 -4.37092,0.0111 -8.74181,0.0132 -13.11274,0.0126 -2.09674,10e-4 -4.19347,0.006 -6.29019,0.0133 -2.93724,0.01 -5.8742,0.007 -8.81144,8.9e-4 -0.86518,0.006 -1.73036,0.0112 -2.62175,0.017 C 173.10925,632.23573 169.38001,631.78733 165,630 c 0,-0.66 0,-1.32 0,-2 -0.83531,-0.0928 -0.83531,-0.0928 -1.6875,-0.1875 -4.5154,-1.58649 -6.4824,-4.3292 -8.74219,-8.36719 C 150.17989,609.69708 150.50109,600.49924 151,590 c -1.65,-0.66 -3.3,-1.32 -5,-2 0,-0.66 0,-1.32 0,-2 -0.70125,-0.2475 -1.4025,-0.495 -2.125,-0.75 -3.27014,-1.4218 -6.01612,-3.12246 -8.875,-5.25 0,-0.66 0,-1.32 0,-2 -0.55688,-0.0825 -1.11375,-0.165 -1.6875,-0.25 -5.465,-1.77243 -8.59729,-5.88134 -11.3125,-10.75 -2.3229,-7.13016 -2.28948,-13.96372 -2.27466,-21.41748 -0.004,-1.34455 -0.01,-2.68909 -0.0155,-4.03363 -0.0133,-3.63234 -0.014,-7.26458 -0.0114,-10.89694 10e-4,-3.04151 -0.004,-6.083 -0.009,-9.1245 -0.0111,-7.18055 -0.0115,-14.36105 -0.005,-21.54161 0.006,-7.3868 -0.006,-14.77341 -0.0276,-22.16017 -0.0177,-6.36121 -0.0236,-12.72236 -0.0204,-19.0836 0.002,-3.7908 -7.5e-4,-7.58147 -0.0147,-11.37225 -0.0127,-3.56733 -0.0106,-7.13437 0.002,-10.70169 0.004,-1.91839 -0.008,-3.83678 -0.0196,-5.75514 0.0495,-8.21432 0.55096,-16.01029 5.51657,-22.82315 0.76442,-0.71027 1.52883,-1.42054 2.31641,-2.15234 0.76183,-0.73348 1.52367,-1.46695 2.30859,-2.22266 2.18584,-1.66303 3.57038,-2.3175 6.25394,-2.71484 0,-0.66 0,-1.32 0,-2 0.66,0 1.32,0 2,0 0,-0.66 0,-1.32 0,-2 1.32,-0.33 2.64,-0.66 4,-1 0,-0.66 0,-1.32 0,-2 1.30242,-0.80396 2.6237,-1.57747 3.95313,-2.33594 2.7788,-2.02106 3.88613,-3.02725 4.73632,-6.39551 0.18072,-3.31825 0.16988,-6.57216 0.0606,-9.89355 -0.20211,-10.26045 0.54821,-19.37555 6.0625,-28.3125 6.64646,-6.26666 11.24236,-8.15839 20.43457,-8.26782 0.72235,-0.01 1.4447,-0.0198 2.18893,-0.03 2.38068,-0.0315 4.76137,-0.0563 7.14213,-0.0811 1.65338,-0.0206 3.30676,-0.0416 4.96014,-0.063 4.34662,-0.0551 8.69328,-0.10458 13.03998,-0.15285 4.4375,-0.0503 8.87493,-0.10593 13.31237,-0.16113 8.70307,-0.10743 17.4062,-0.2089 26.10938,-0.3066 0.18611,-1.82833 0.18611,-1.82833 0.37598,-3.6936 0.17128,-1.6243 0.34285,-3.24856 0.51464,-4.87281 0.0807,-0.80038 0.16146,-1.60077 0.24463,-2.42541 C 246.48685,314.39006 250.64305,301.8064 259,292 c 0.66,0 1.32,0 2,0 0.66,-1.65 1.32,-3.3 2,-5 0.66,0 1.32,0 2,0 0.33,-0.99 0.66,-1.98 1,-3 0.66,0 1.32,0 2,0 0.26812,-0.59812 0.53625,-1.19625 0.8125,-1.8125 1.18667,-2.18598 2.28349,-3.60083 4.1875,-5.1875 0.66,0 1.32,0 2,0 0.2707,-0.58781 0.54141,-1.17563 0.82031,-1.78125 1.16435,-2.1899 2.45709,-3.83142 4.05469,-5.71875 6.35053,-8.38456 7.76084,-18.23067 8.125,-28.5 -1.98,-0.33 -3.96,-0.66 -6,-1 0,-0.66 0,-1.32 0,-2 -1.10408,-0.37125 -1.10408,-0.37125 -2.23047,-0.75 -3.03307,-1.36895 -4.76743,-2.87874 -7.08203,-5.25 -0.69738,-0.70125 -1.39477,-1.4025 -2.11328,-2.125 C 269,228 269,228 269,226 c -0.66,0 -1.32,0 -2,0 -4.2064,-7.79048 -7.6667,-15.02337 -9.49219,-23.76953 -0.29054,-2.1907 -0.29054,-2.1907 -1.50781,-3.23047 -1.55879,-15.65475 2.13093,-31.56724 12,-44 2.59428,-3.116 5.19343,-5.44918 9,-7 0,-0.66 0,-1.32 0,-2 4.38462,-3 4.38462,-3 7,-3 0,-0.66 0,-1.32 0,-2 6.625,-3 6.625,-3 10,-3 0,-52.8 0,-105.6 0,-160 z m 3,206 c -1.70232,5.10697 -1.5912,9.40376 0.25,14.375 1.77246,2.65869 2.77422,3.59887 5.75,4.625 0,0.66 0,1.32 0,2 2.71655,1.35828 4.90789,1.13234 7.9375,1.125 1.0609,0.003 2.1218,0.005 3.21484,0.008 2.92339,-0.007 2.92339,-0.007 5.84766,-1.13281 0,-0.66 0,-1.32 0,-2 0.6123,-0.24234 1.22461,-0.48469 1.85547,-0.73438 C 325.64497,200.0292 326.79125,196.0864 328,192 c -0.1748,-3.20461 -0.5827,-5.16541 -2,-8 -0.66,0 -1.32,0 -2,0 0,0.66 0,1.32 0,2 -0.66,0 -1.32,0 -2,0 0,0.66 0,1.32 0,2 -5.27982,2.22308 -10.35011,2.76919 -16,2 -3.10932,-1.32631 -5.45088,-2.90176 -7,-6 -0.66,0 -1.32,0 -2,0 z m -18,463 c -0.33,1.65 -0.66,3.3 -1,5 0.66,0 1.32,0 2,0 0,-1.65 0,-3.3 0,-5 -0.33,0 -0.66,0 -1,0 z m -2,6 c -0.33,1.32 -0.66,2.64 -1,4 0.99,-0.33 1.98,-0.66 3,-1 -0.66,-0.99 -1.32,-1.98 -2,-3 z"
     fill="#172536"
     id="path1" />
  <path
     d="m 210,381 c 36.96,0 73.92,0 112,0 -1.98,3.96 -3.96,7.92 -6,12 -1.97783,9.93556 -0.11173,18.13983 4.80859,26.86719 5.27313,7.5384 12.29589,12.6002 20.19141,17.13281 -0.43313,-0.93973 -0.43313,-0.93973 -0.875,-1.89844 -0.37125,-0.81726 -0.7425,-1.63453 -1.125,-2.47656 -0.37125,-0.81211 -0.7425,-1.62422 -1.125,-2.46094 C 337,428 337,428 337,426 c 0.89719,-0.19594 1.79437,-0.39188 2.71875,-0.59375 C 360.30859,420.47149 376.44506,410.31792 389,393 c 1.77076,-2.92607 3.40005,-5.86583 4.94141,-8.91797 C 395,382 395,382 396,381 c 21.12,0 42.24,0 64,0 0,64.68 0,129.36 0,196 -82.5,0 -165,0 -250,0 0,-64.68 0,-129.36 0,-196 z"
     fill="#47474b"
     id="path2" />
  <path
     d="m 198.98557,350.51898 c 1.01836,-0.005 1.01836,-0.005 2.05731,-0.0104 2.26202,-0.007 4.52284,0.0154 6.78476,0.0373 1.62648,10e-4 3.25296,4.9e-4 4.87944,-0.002 4.40671,-10e-4 8.81298,0.0224 13.21958,0.0503 4.60842,0.025 9.21685,0.0274 13.82532,0.0321 8.72285,0.0124 17.4455,0.0452 26.16826,0.0854 9.93221,0.0447 19.86443,0.0667 29.79671,0.0868 20.42779,0.0418 40.85541,0.11214 61.28305,0.20129 -0.65748,3.65218 -1.35746,5.97272 -3.625,8.9375 -0.46664,0.62777 -0.93328,1.25555 -1.41406,1.90234 -0.64711,0.71286 -1.29422,1.42571 -1.96094,2.16016 -0.4143,0.49414 -0.82861,0.98828 -1.25547,1.49739 -3.65318,3.78378 -6.4993,4.9351 -11.75372,5.24864 -2.42726,0.0289 -4.85506,0.0251 -7.28231,-0.005 -1.34267,0.005 -2.68533,0.0125 -4.02797,0.0225 -3.63031,0.0198 -7.25966,0.003 -10.88992,-0.0193 -3.80538,-0.0169 -7.61058,0.002 -11.41595,0.0171 -7.20461,0.024 -14.40888,0.0193 -21.6135,0.003 -12.90598,-0.0286 -25.81194,-0.008 -38.7179,0.0224 -4.52719,0.01 -9.05416,0.007 -13.58135,-0.007 -2.81582,-0.007 -5.6316,-0.006 -8.44743,-0.003 -1.92533,-7.5e-4 -3.85064,-0.0116 -5.77594,-0.0228 -1.72424,0.004 -1.72424,0.004 -3.48332,0.008 -0.99659,-0.002 -1.99317,-0.005 -3.01995,-0.007 -2.91436,0.26099 -5.08897,1.02693 -7.73527,2.24495 -0.07,27.45915 -0.12295,54.91829 -0.15544,82.37751 -0.0155,12.74912 -0.0366,25.49817 -0.0709,38.24725 -0.0299,11.109 -0.0492,22.21797 -0.056,33.32702 -0.004,5.88495 -0.0132,11.76978 -0.0349,17.65469 -0.0203,5.53454 -0.0267,11.06893 -0.0221,16.6035 -8.3e-4,2.03541 -0.007,4.07083 -0.0183,6.1062 -0.0148,2.7711 -0.0114,5.54158 -0.003,8.31269 -0.009,0.81225 -0.0175,1.6245 -0.0265,2.46137 -0.0531,4.05646 -0.0531,4.05646 1.63433,7.6152 2.2137,1.63488 3.43169,1.6704 6.1686,1.67209 0.90858,0.008 1.81715,0.0157 2.75325,0.0237 0.9995,-0.007 1.999,-0.0134 3.02878,-0.0203 1.06076,0.005 2.12152,0.009 3.21442,0.0142 3.57222,0.012 7.14406,0.002 10.71628,-0.007 2.55387,0.004 5.10775,0.009 7.66162,0.0159 6.22773,0.0123 12.45533,0.0105 18.68307,0.002 5.06139,-0.007 10.12275,-0.008 15.18415,-0.004 0.71974,4.6e-4 1.43949,9.2e-4 2.18104,10e-4 1.46207,9.6e-4 2.92414,0.002 4.3862,0.003 13.71945,0.009 27.43883,-10e-4 41.15827,-0.0174 11.77365,-0.0134 23.5472,-0.0111 35.32084,0.003 13.66648,0.0161 27.3329,0.0224 40.99939,0.0132 1.45737,-9.6e-4 2.91474,-0.002 4.37211,-0.003 1.07562,-7e-4 1.07562,-7e-4 2.17297,-10e-4 5.05469,-0.003 10.10934,0.002 15.16403,0.009 6.80435,0.009 13.60851,0.003 20.41286,-0.0147 2.50058,-0.004 5.00119,-0.003 7.50177,0.004 3.40738,0.008 6.81422,-0.002 10.22157,-0.017 1.49255,0.01 1.49255,0.01 3.01526,0.0203 4.92589,-0.0422 8.48793,-0.0899 12.43643,-3.40123 1.58115,-3.1623 1.14424,-6.56161 1.14044,-10.03415 0.003,-0.8401 0.006,-1.6802 0.009,-2.54575 0.009,-2.83129 0.0102,-5.66253 0.0117,-8.49383 0.005,-2.02334 0.01,-4.04667 0.015,-6.07001 0.0131,-5.50824 0.0196,-11.01646 0.024,-16.52471 0.003,-3.43835 0.007,-6.8767 0.0115,-10.31504 0.0137,-10.7492 0.0234,-21.4984 0.0272,-32.24761 0.004,-12.42451 0.022,-24.84892 0.051,-37.27341 0.0216,-9.59323 0.0317,-19.18643 0.033,-28.77969 10e-4,-5.73459 0.007,-11.46908 0.0248,-17.20365 0.0164,-5.39259 0.0187,-10.785 0.01,-16.17761 -7.8e-4,-1.98177 0.004,-3.96355 0.0134,-5.9453 0.0126,-2.70059 0.007,-5.40054 -0.004,-8.10112 0.008,-0.78852 0.0161,-1.57704 0.0244,-2.38946 -0.0292,-3.21441 -0.19232,-5.52818 -1.73098,-8.38423 -2.5847,-2.35672 -4.80321,-2.03489 -8.24369,-2.06033 -0.66368,-0.0103 -1.32737,-0.0207 -2.01116,-0.0313 -2.19159,-0.0295 -4.38227,-0.0309 -6.57405,-0.0322 -1.52031,-0.015 -3.0406,-0.0317 -4.56087,-0.0501 -3.9998,-0.0437 -7.99937,-0.0637 -11.99937,-0.0787 -4.08227,-0.0195 -8.16429,-0.0615 -12.2464,-0.10162 C 415.01699,371.0848 407.00868,371.03454 399,371 c 0.30945,-2.58373 0.62244,-5.16695 0.9375,-7.75 0.13052,-1.09441 0.13052,-1.09441 0.26367,-2.21094 0.4191,-3.4149 0.9161,-6.7151 1.79883,-10.03906 9.65785,-0.0696 19.31562,-0.12288 28.97367,-0.15544 4.48502,-0.0156 8.96987,-0.0368 13.4548,-0.0709 4.33126,-0.0327 8.66236,-0.0505 12.99374,-0.0583 1.64935,-0.006 3.2987,-0.0163 4.94799,-0.0326 2.31698,-0.0219 4.63329,-0.0248 6.95036,-0.0234 1.31682,-0.007 2.63364,-0.0133 3.99037,-0.0202 5.41452,0.5295 9.21592,1.68135 12.86212,5.83807 2.44728,4.71881 2.38081,8.50049 2.32816,13.7395 0.006,1.02657 0.0111,2.05314 0.0168,3.11082 0.0136,3.43864 -10e-4,6.87656 -0.0163,10.31519 0.004,2.46565 0.009,4.9313 0.0164,7.39694 0.0125,6.00079 0.006,12.00129 -0.009,18.00204 -0.0169,6.98882 -0.0136,13.97758 -0.01,20.9664 0.006,12.46956 -0.008,24.93902 -0.033,37.40855 -0.0239,12.09899 -0.031,24.19786 -0.0205,36.29687 0.0114,13.17759 0.0133,26.35511 -10e-4,39.53269 -0.002,1.40508 -0.003,2.81017 -0.005,4.21525 -7.6e-4,0.69132 -0.002,1.38264 -0.002,2.0949 -0.005,4.87138 -0.003,9.74273 10e-4,14.6141 0.005,6.5557 -0.005,13.11123 -0.0269,19.6669 -0.006,2.40867 -0.006,4.81736 -0.001,7.22603 0.006,3.28244 -0.007,6.5643 -0.0238,9.84668 0.009,1.43696 0.009,1.43696 0.0182,2.90294 -0.0463,4.83171 -0.0935,8.37693 -3.40589,12.18689 -4.66896,4.24432 -10.58988,3.42304 -16.53246,3.39441 -1.18018,0.006 -2.36037,0.0122 -3.57631,0.0185 -3.27228,0.0138 -6.54424,0.0141 -9.81653,0.009 -3.53042,-0.003 -7.06078,0.0119 -10.59118,0.0241 -6.91491,0.0211 -13.82974,0.0256 -20.74469,0.0238 -5.62007,-10e-4 -11.24012,0.002 -16.86019,0.01 -1.61852,0.002 -3.23705,0.004 -4.85558,0.006 -0.80558,10e-4 -1.61115,0.002 -2.44113,0.003 -15.23647,0.0189 -30.4729,0.0178 -45.70937,0.011 -13.94077,-0.006 -27.88136,0.0152 -41.82208,0.0484 -14.31294,0.0337 -28.6258,0.0489 -42.93878,0.0443 -8.03624,-0.002 -16.07231,0.003 -24.10852,0.0279 -6.84102,0.021 -13.68178,0.0246 -20.52281,0.006 -3.49049,-0.009 -6.98048,-0.0103 -10.47093,0.0104 -3.78379,0.0181 -7.56626,0.006 -11.35,-0.0149 -1.1036,0.0125 -2.20719,0.025 -3.34423,0.0379 -8.28765,-0.0963 -8.28765,-0.0963 -11.85642,-2.82323 -5.35866,-6.1811 -5.89689,-11.01308 -5.84647,-18.89439 -0.005,-1.00953 -0.0108,-2.01906 -0.0163,-3.05918 -0.0143,-3.38091 -0.007,-6.76143 -5e-5,-10.14236 -0.006,-2.42462 -0.0127,-4.84923 -0.0208,-7.27385 -0.0161,-5.90078 -0.018,-11.80146 -0.0128,-17.70225 0.004,-4.79625 0.003,-9.59247 -0.003,-14.38872 -7.4e-4,-0.68297 -0.001,-1.36594 -0.002,-2.0696 -0.002,-1.3875 -0.003,-2.77499 -0.005,-4.16249 -0.0137,-13.00653 -0.008,-26.013 0.003,-39.01953 0.01,-11.89727 -0.003,-23.79438 -0.0269,-35.69162 -0.0244,-12.22019 -0.034,-24.44031 -0.0273,-36.66052 0.003,-6.85914 10e-4,-13.71815 -0.0163,-20.57727 -0.0162,-6.44819 -0.0115,-12.89615 0.007,-19.34434 0.004,-2.36794 5.5e-4,-4.73591 -0.01,-7.10383 -0.0131,-3.22967 -0.002,-6.45835 0.016,-9.68798 -0.01,-0.9395 -0.0192,-1.87899 -0.0291,-2.84696 0.0627,-5.55412 0.68156,-8.9065 4.53031,-13.21127 4.37035,-3.64264 7.34384,-4.49819 12.98557,-4.48102 z"
     fill="#305967"
     id="path3" />
  <path
     d="m 153,403 c 0,57.09 0,114.18 0,173 -4.17167,-1.66867 -6.93256,-3.16461 -10.5,-5.75 -0.91781,-0.65484 -1.83562,-1.30969 -2.78125,-1.98438 -7.35404,-6.12836 -7.35404,-6.12836 -8.19218,-11.03998 -0.20049,-3.58243 -0.23626,-7.1351 -0.22115,-10.7232 -0.0117,-1.37707 -0.0255,-2.75412 -0.0411,-4.13115 -0.0355,-3.72956 -0.0391,-7.4585 -0.0347,-11.1882 10e-4,-3.11869 -0.0123,-6.23725 -0.0254,-9.3559 -0.0303,-7.36079 -0.0337,-14.72125 -0.0208,-22.08207 0.0127,-7.5815 -0.0225,-15.16172 -0.0809,-22.74298 -0.0484,-6.52001 -0.0657,-13.03962 -0.0585,-19.55981 0.004,-3.88946 -0.004,-7.77796 -0.0426,-11.66726 -0.035,-3.6598 -0.0309,-7.31757 0.002,-10.97737 0.008,-1.97371 -0.0223,-3.94747 -0.0546,-5.92095 0.0956,-6.23816 0.4329,-10.01921 4.9178,-14.57832 1.34667,-1.1373 2.72261,-2.24138 4.13313,-3.29843 0.5427,-0.44508 1.0854,-0.89016 1.64455,-1.34873 1.37106,-1.10095 2.79932,-2.12961 4.23045,-3.15127 0.92555,-0.67031 1.85109,-1.34063 2.80469,-2.03125 C 151,403 151,403 153,403 Z"
     fill="#9dc2d1"
     id="path4" />
  <path
     d="m 296,150 c 0.14547,3.24953 0.23412,6.49822 0.3125,9.75 0.0419,0.92039 0.0838,1.84078 0.12695,2.78906 0.0467,2.57545 0.0258,4.92635 -0.43945,7.46094 -2.34375,2.36719 -2.34375,2.36719 -5,4 -4.79877,6.32727 -5.79811,12.86219 -5.47656,20.66406 1.14135,7.98946 5.42698,12.81987 11.41406,17.92578 6.51448,4.45403 13.44035,3.97061 21.0625,3.41016 6.22003,-1.32321 11.22001,-4.3667 14.80078,-9.66406 4.65065,-9.10902 5.68587,-15.31588 2.57422,-25.08594 -1.26869,-3.62173 -2.6191,-5.51743 -5.5,-7.92969 -2.79103,-2.65357 -3.31405,-4.44929 -3.46094,-8.28125 0.0395,-1.80562 0.11062,-3.61079 0.21094,-5.41406 0.0406,-1.39025 0.0406,-1.39025 0.082,-2.80859 0.0704,-2.27458 0.16869,-4.54425 0.29297,-6.81641 9.16961,2.7101 16.55011,9.20476 22,17 6.12729,11.28627 7.93624,23.52877 5.35156,36.17187 -4.24369,12.54972 -11.65705,22.02389 -23.25,28.42969 -10.79869,4.86893 -24.70326,5.5683 -35.9375,1.4375 -11.87775,-5.70305 -19.84478,-14.54586 -25.2695,-26.46875 C 265.92267,195.15773 266.85423,181.82438 272,171 c 4.46453,-7.94593 13.93125,-21 24,-21 z"
     fill="#4d555a"
     id="path5" />
  <path
     d="m 392,291 c 1.39047,3.86999 0.68109,7.12238 0.0625,11.125 -0.86665,6.14443 -1.26102,12.16967 -1.25,18.375 -5.6e-4,0.72848 -10e-4,1.45696 -0.002,2.20752 0.0408,4.10099 0.4024,8.03931 0.95557,12.10889 2.28775,21.38107 -1.25122,40.64915 -14.14136,58.12109 -1.17526,1.38297 -2.38492,2.73734 -3.625,4.0625 -0.69223,0.74508 -1.38445,1.49016 -2.09766,2.25781 -8.64018,8.51037 -21.8681,16.20888 -34.21093,16.9375 -1.03254,-0.0232 -2.06508,-0.0464 -3.12891,-0.0703 -1.05059,-0.0181 -2.10117,-0.0361 -3.18359,-0.0547 -0.78504,-0.0232 -1.57008,-0.0464 -2.37891,-0.0703 -0.66,-1.32 -1.32,-2.64 -2,-4 1.16402,-0.11215 1.16402,-0.11215 2.35156,-0.22656 12.12798,-1.4762 22.6865,-5.38544 31.97656,-13.45313 C 363,397 363,397 365,397 c 0.26168,-0.58523 0.52336,-1.17047 0.79297,-1.77344 1.27057,-2.34378 2.67821,-3.93267 4.51953,-5.85156 7.53162,-8.48678 12.08323,-19.94056 11.6875,-31.375 -0.20754,0.81082 -0.41508,1.62164 -0.62891,2.45703 -4.22013,15.16775 -12.79422,27.85633 -26.42578,36.03906 -8.06873,4.11998 -16.6846,6.67573 -25.75781,6.56641 -1.46373,-0.0135 -1.46373,-0.0135 -2.95703,-0.0273 C 325.49441,403.0236 324.75836,403.012 324,403 c -0.64629,-6.78609 0.13864,-10.62252 4.24219,-16.12891 2.63167,-2.80127 5.10319,-3.73276 8.75781,-4.87109 12.2612,-3.85139 20.65859,-9.54932 27,-21 2.98442,-6.61353 3.70663,-12.81733 4.375,-20 1.95319,-18.15999 6.12889,-35.66749 20.625,-48 0.99,-0.66 1.98,-1.32 3,-2 z"
     fill="#4b5256"
     id="path6" />
  <path
     d="m 273.8125,430.625 c 0.95971,-0.0245 1.91941,-0.049 2.9082,-0.0742 6.1527,-0.0252 11.29606,0.59882 16.2793,4.44922 3.6619,3.75626 4.50992,6.15503 4.53125,11.36719 0.008,1.82338 0.008,1.82338 0.0156,3.68359 -0.0155,1.26199 -0.0309,2.52399 -0.0469,3.82422 0.0232,1.88139 0.0232,1.88139 0.0469,3.80078 -0.0292,6.89459 -0.12842,11.8634 -4.54685,17.3242 -3.52854,2.39079 -6.77857,2.25332 -10.96094,2.27344 -1.3724,0.0203 -2.7448,0.0411 -4.11719,0.0625 -2.14818,0.0226 -4.29604,0.0391 -6.44433,0.0449 -2.08425,0.01 -4.16706,0.0434 -6.25098,0.0801 -1.86277,0.0123 -1.86277,0.0123 -3.76318,0.0249 -4.10463,0.60936 -6.25296,1.92764 -9.46338,4.51416 -2.01751,3.02626 -2.26173,3.77195 -2.37891,7.19531 -0.0342,0.79793 -0.0683,1.59586 -0.10351,2.41797 -0.0264,0.82887 -0.0529,1.65774 -0.0801,2.51172 -0.317,8.7545 -0.317,8.7545 -1.4375,9.875 -4.20158,0.63587 -8.26925,0.89577 -12.11328,-1.09375 -4.75212,-3.82612 -7.45432,-8.30664 -8.18677,-14.40405 -0.13859,-2.81966 -0.15842,-5.61687 -0.13745,-8.4397 -0.02,-0.95068 -0.04,-1.90137 -0.0606,-2.88086 0.004,-6.01663 0.52717,-11.423 4.49805,-16.18164 4.89076,-4.54698 8.76117,-5.72102 15.33984,-5.48828 0.76696,0.007 1.53392,0.0141 2.32412,0.0214 2.42555,0.0278 4.8487,0.0905 7.27354,0.15434 1.65426,0.0251 3.30856,0.0479 4.96289,0.0684 4.03411,0.0548 8.06646,0.14097 12.09961,0.24414 0,-1.32 0,-2.64 0,-4 -7.26,0 -14.52,0 -22,0 -0.71671,-12.78135 -0.71671,-12.78135 1.16016,-15.97266 6.2378,-5.21678 12.95005,-5.39212 20.65234,-5.40234 z"
     fill="#f9fafa"
     id="path7" />
  <path
     d="m 301,456 c 8.64094,-0.45302 8.64094,-0.45302 12.8125,0.9375 4.86778,4.58962 7.43398,10.01976 7.85156,16.69141 0.0131,1.97786 -2.6e-4,3.95606 -0.0391,5.93359 0.0193,0.98936 0.0387,1.97871 0.0586,2.99805 -0.0434,6.54762 -1.06087,11.59138 -5.68359,16.43945 -4.9055,4.06847 -8.36711,4.55693 -14.46094,4.39062 -0.79057,-0.006 -1.58113,-0.0113 -2.39566,-0.0172 -2.50677,-0.0223 -5.01207,-0.0724 -7.5184,-0.12347 -1.70701,-0.0201 -3.41404,-0.0383 -5.12109,-0.0547 C 282.33538,503.15138 278.16794,503.08243 274,503 c 0,1.32 0,2.64 0,4 7.59,0 15.18,0 23,0 0.48241,10.85427 0.48241,10.85427 -1.5,15.5625 -5.89965,5.75216 -13.19521,5.93659 -21,5.875 -0.89848,0.02 -1.79695,0.04 -2.72266,0.0605 C 265.81112,528.4937 260.84082,527.68332 256,524 c -3.75646,-3.82091 -4.51041,-6.30626 -4.53125,-11.62109 -0.005,-1.26522 -0.0103,-2.53043 -0.0156,-3.83399 0.0155,-1.3142 0.0309,-2.6284 0.0469,-3.98242 -0.0155,-1.31033 -0.0309,-2.62066 -0.0469,-3.9707 0.005,-1.26651 0.0103,-2.53301 0.0156,-3.83789 0.005,-1.1517 0.009,-2.3034 0.0137,-3.48999 0.63016,-3.97383 2.0255,-6.13725 4.51758,-9.26392 3.65791,-2.43861 5.50369,-2.26542 9.86328,-2.30859 1.37566,-0.0252 2.75131,-0.0506 4.12695,-0.0762 2.15909,-0.0287 4.3181,-0.0527 6.4773,-0.0715 2.09064,-0.0218 4.18042,-0.0612 6.27075,-0.10229 1.24822,-0.0135 2.49643,-0.0269 3.78247,-0.0408 5.20488,-0.59934 8.42251,-2.14397 11.79175,-6.15063 2.9873,-5.71429 2.52478,-12.92831 2.6875,-19.25 z"
     fill="#fafbfb"
     id="path8" />
  <path
     d="m 300,243 c 5.61,0 11.22,0 17,0 0.21182,6.35463 -0.39954,12.14752 -1.5625,18.39844 -0.52042,2.65495 -0.52042,2.65495 -0.4375,5.60156 4.33988,-6.36516 6.20821,-10.20519 6.65625,-17.85547 0.17016,-1.06154 0.17016,-1.06154 0.34375,-2.14453 0.66,-0.33 1.32,-0.66 2,-1 0.80364,20.18022 -6.52485,35.19606 -18.5,51 -10.81388,14.29569 -16.0109,26.09891 -16.5,44 -1.65,0 -3.3,0 -5,0 -0.61289,-13.90923 1.55113,-24.79368 6,-38 -8.13127,12.49506 -10.59364,23.35037 -12,38 -7.26,0 -14.52,0 -22,0 0,-22.41966 7.03661,-36.17096 22,-52 1.53754,-1.48346 3.07913,-2.96273 4.625,-4.4375 9.29687,-9.18309 14.28566,-19.73197 16.0625,-32.5 0.12955,-0.87463 0.2591,-1.74926 0.39258,-2.65039 C 299.39524,247.27598 299.69882,245.13815 300,243 Z"
     fill="#4d565b"
     id="path9" />
  <path
     d="m 305,-22 c 3.96,0 7.92,0 12,0 0.07,25.894545 0.12295,51.789077 0.15544,77.683698 0.0155,12.022702 0.0366,24.045346 0.0709,36.068011 0.0299,10.476161 0.0492,20.952271 0.056,31.428471 0.004,5.5496 0.0132,11.09908 0.0349,16.64864 0.0203,5.21937 0.0267,10.43857 0.0221,15.65797 8.3e-4,1.9193 0.007,3.83862 0.0183,5.75789 0.0148,2.61346 0.0114,5.22627 0.003,7.83975 0.009,0.76556 0.0175,1.53112 0.0265,2.31988 -0.0436,5.10325 -0.0436,5.10325 -1.75744,7.55916 -2.43239,1.54697 -3.80852,1.58702 -6.6298,1.03653 -3.01013,-2.86337 -3.93836,-4.53764 -4.49219,-8.69186 -0.0167,-1.46267 -0.0115,-2.9257 0.0112,-4.38829 -0.003,-0.80874 -0.007,-1.61747 -0.0103,-2.45071 -0.007,-2.70728 0.0154,-5.41356 0.0373,-8.12075 0.001,-1.9416 4.9e-4,-3.8832 -0.002,-5.8248 -10e-4,-5.27035 0.0224,-10.54033 0.0503,-15.81059 0.025,-5.50797 0.0274,-11.01594 0.0321,-16.52396 0.0124,-10.42991 0.0453,-20.859664 0.0854,-31.289506 0.0447,-11.874111 0.0667,-23.74823 0.0868,-35.622403 C 304.84052,26.851327 304.91089,2.425673 305,-22 Z"
     fill="#4b5156"
     id="path10" />
  <path
     d="m 176,351 c -0.30938,0.76312 -0.61875,1.52625 -0.9375,2.3125 -1.3862,3.50628 -2.18767,6.22819 -2.19113,9.97825 -0.003,0.88071 -0.006,1.76141 -0.01,2.66881 0.002,0.96837 0.003,1.93674 0.005,2.93445 -0.002,1.02809 -0.005,2.05618 -0.007,3.11543 -0.006,3.46154 -0.006,6.92305 -0.005,10.3846 -0.003,2.47506 -0.006,4.95012 -0.0102,7.42517 -0.008,6.03519 -0.0111,12.07036 -0.0116,18.10555 -4.8e-4,4.90501 -0.003,9.81003 -0.006,14.71504 -0.009,13.90201 -0.0134,27.80401 -0.0127,41.70602 4e-5,0.74971 8e-5,1.49942 1.2e-4,2.27186 4e-5,0.75062 8e-5,1.50125 1.2e-4,2.27462 4.1e-4,12.16645 -0.009,24.33287 -0.0233,36.49931 -0.0144,12.48788 -0.0213,24.97576 -0.0204,37.46365 3.3e-4,7.01282 -0.002,14.0256 -0.0132,21.03841 -0.01,6.59419 -0.01,13.18832 -0.002,19.78251 0.001,2.42319 -0.001,4.84638 -0.007,7.26956 -0.008,3.30218 -0.003,6.60411 0.005,9.90628 -0.005,0.96391 -0.0103,1.92782 -0.0156,2.92093 0.0238,4.58559 0.24612,8.02126 2.26282,12.22705 0,0.99 0,1.98 0,3 -3.37582,-0.30689 -5.50889,-0.63167 -8.25,-2.6875 -4.24013,-5.60302 -4.04514,-11.6403 -4.03761,-18.35727 -0.007,-1.00812 -0.0133,-2.01624 -0.0202,-3.05491 -0.0197,-3.37614 -0.0251,-6.75215 -0.0304,-10.12835 -0.0109,-2.42137 -0.0226,-4.84274 -0.035,-7.26411 -0.0337,-7.26196 -0.0503,-14.52389 -0.0641,-21.78591 -0.007,-3.42289 -0.0161,-6.84577 -0.0251,-10.26866 -0.0292,-11.38199 -0.054,-22.76396 -0.0646,-34.14598 -6.9e-4,-0.72778 -0.001,-1.45556 -0.002,-2.20539 -7e-4,-0.72948 -0.001,-1.45896 -0.002,-2.21054 -0.001,-1.47812 -0.003,-2.95623 -0.004,-4.43435 -7.1e-4,-0.73319 -0.001,-1.46638 -0.002,-2.22179 -0.0123,-11.88307 -0.0551,-23.76583 -0.11081,-35.64877 -0.0568,-12.20889 -0.0873,-24.41762 -0.0916,-36.62664 -0.003,-6.85152 -0.0175,-13.7026 -0.0613,-20.55399 -0.041,-6.44336 -0.0462,-12.88612 -0.0271,-19.32958 0.001,-2.36391 -0.009,-4.72785 -0.033,-7.09164 -0.0304,-3.2296 -0.0175,-6.45629 0.006,-9.68588 -0.019,-0.93367 -0.038,-1.86734 -0.0576,-2.8293 0.10805,-6.21517 1.74543,-9.3894 6.02109,-13.88619 C 170.58724,352.50854 172.70964,351 176,351 Z"
     fill="#9fc2d1"
     id="path11" />
  <path
     d="m 399,278 c 2.81003,1.79364 4.5094,3.01881 6,6 0.38664,5.70293 -0.25857,10.54441 -1.5,16.125 -2.27721,10.44682 -1.67462,20.75549 -0.98438,31.34766 0.0699,1.0935 0.0699,1.0935 0.14112,2.2091 0.11339,1.77281 0.22818,3.54554 0.34326,5.31824 1.49338,-0.003 1.49338,-0.003 3.01692,-0.007 9.37325,-0.0202 18.74649,-0.0353 28.11976,-0.0451 4.81911,-0.005 9.63821,-0.0123 14.45731,-0.0236 4.64894,-0.0109 9.29787,-0.0168 13.94682,-0.0194 1.77544,-0.002 3.55089,-0.005 5.32633,-0.0109 2.48286,-0.007 4.96566,-0.008 7.44853,-0.008 0.73728,-0.004 1.47455,-0.007 2.23417,-0.0109 3.09599,0.006 5.4886,0.13723 8.45016,1.12442 0,0.66 0,1.32 0,2 0.55687,0.0825 1.11375,0.165 1.6875,0.25 4.76584,1.54568 7.32794,4.40232 9.5625,8.75 1.9734,4.1409 2.8734,7.80855 2.88422,12.39984 0.004,0.87961 0.009,1.75922 0.0135,2.66549 -2.8e-4,1.44307 -2.8e-4,1.44307 -5.6e-4,2.91529 0.004,1.02542 0.007,2.05084 0.0111,3.10733 0.011,3.44676 0.0149,6.89349 0.0187,10.34027 0.006,2.4671 0.0129,4.93419 0.0199,7.40128 0.0192,7.41112 0.0298,14.82224 0.0387,22.23338 0.004,3.49237 0.01,6.98474 0.015,10.47711 0.017,11.61352 0.0315,23.22704 0.0387,34.84057 0.002,3.01263 0.004,6.02527 0.006,9.0379 4.8e-4,0.74875 9.6e-4,1.4975 0.001,2.26894 0.008,12.12424 0.0336,24.24838 0.0661,36.37258 0.0331,12.45517 0.0511,24.91029 0.0543,37.36551 0.002,6.9901 0.0109,13.98005 0.0365,20.9701 0.024,6.57783 0.0275,13.15546 0.0172,19.73334 -4.9e-4,2.41143 0.006,4.82286 0.0196,7.23424 0.0177,3.29841 0.0106,6.5959 -0.003,9.89431 0.0165,1.42299 0.0165,1.42299 0.0332,2.87473 -0.0881,9.1951 -2.72467,16.72111 -9.25146,23.29748 -7.242,5.01082 -13.80054,6.14855 -22.48071,6.02441 -1.62594,8.8e-4 -1.62594,8.8e-4 -3.28473,0.002 -3.55508,-0.003 -7.10931,-0.0338 -10.66425,-0.0652 -2.47578,-0.007 -4.95156,-0.0131 -7.42735,-0.0172 -6.49545,-0.0152 -12.99054,-0.0545 -19.48585,-0.0988 -6.63631,-0.041 -13.27266,-0.0592 -19.90906,-0.0794 C 395.01153,632.1525 382.00585,632.08217 369,632 c 0.66,7.92 1.32,15.84 2,24 2.78437,0.10312 5.56875,0.20625 8.4375,0.3125 6.67668,0.30946 12.35172,1.04217 18.5625,3.6875 0,0.66 0,1.32 0,2 0.66,0 1.32,0 2,0 0,0.66 0,1.32 0,2 0.5775,0.20625 1.155,0.4125 1.75,0.625 3.51316,2.14693 5.63118,5.38994 6.85498,9.31567 0.4017,2.09414 0.52432,4.0029 0.52783,6.13355 10e-4,0.74959 0.003,1.49918 0.004,2.27148 -0.004,0.7728 -0.008,1.54559 -0.0117,2.3418 0.004,0.78439 0.008,1.56879 0.0117,2.37695 -0.01,5.80887 -0.01,5.80887 -1.13672,6.93555 -2.32307,0.10204 -4.61656,0.13888 -6.94029,0.13371 -0.73449,0.002 -1.46897,0.005 -2.22571,0.007 -2.47976,0.006 -4.95946,0.006 -7.43922,0.005 -1.77028,0.003 -3.54056,0.006 -5.31084,0.0102 -4.82224,0.009 -9.64446,0.0112 -14.46671,0.0118 -4.01864,9.4e-4 -8.03727,0.005 -12.05591,0.008 -9.47707,0.008 -18.95412,0.0106 -28.43119,0.01 -9.7924,-6e-4 -19.58474,0.01 -29.37713,0.0258 -8.39319,0.0131 -16.78636,0.0184 -25.17956,0.0178 -5.01911,-2.6e-4 -10.03818,0.003 -15.05728,0.0132 -4.71869,0.01 -9.43728,0.01 -14.15598,0.002 -1.73588,-10e-4 -3.47178,10e-4 -5.20765,0.007 -2.36187,0.008 -4.7234,0.003 -7.08525,-0.005 -0.69387,0.005 -1.38773,0.0103 -2.10262,0.0156 -4.73639,-0.0346 -4.73639,-0.0346 -6.96466,-2.26282 -0.84523,-8.50144 -1.31762,-17.84618 4,-25 3.00173,-3.12631 6.10168,-6.05084 10,-8 1.9996,-0.04 4.00047,-0.0435 6,0 0,-0.66 0,-1.32 0,-2 3.3,0 6.6,0 10,0 0,0.66 0,1.32 0,2 2.31,0 4.62,0 7,0 0.10957,-0.71543 0.21914,-1.43086 0.33203,-2.16797 C 264.55715,649.13269 266.16699,641.57644 268,634 c 0.33,0 0.66,0 1,0 -0.43099,8.96452 -2.69889,17.37353 -5,26 -1.29035,0.0374 -2.5807,0.0748 -3.91016,0.11328 -1.71747,0.0657 -3.43492,0.13214 -5.15234,0.19922 -0.84756,0.0226 -1.69512,0.0451 -2.56836,0.0684 -8.79313,0.37341 -15.32837,3.04624 -21.36914,9.6191 -4.302,6.8832 -3.36953,12.17342 -4,21 59.4,0 118.8,0 180,0 0.003,-14.40304 0.003,-14.40304 -7,-25 -8.38475,-7.18445 -20.58483,-5.92669 -31,-6 -0.71562,-7.34785 -1.0726,-14.59463 -1.03125,-21.97266 0.002,-0.7767 0.005,-1.5534 0.007,-2.35363 0.006,-1.89125 0.0148,-3.78248 0.0244,-5.67371 0.568,-5.4e-4 1.136,-10e-4 1.72121,-0.002 13.85671,-0.015 27.7131,-0.0579 41.56963,-0.13044 6.70111,-0.0346 13.40199,-0.0594 20.1032,-0.0635 6.47116,-0.004 12.94181,-0.0328 19.4128,-0.0779 2.46461,-0.013 4.92928,-0.0173 7.39392,-0.0127 3.46147,0.005 6.92145,-0.0213 10.38274,-0.0544 1.01133,0.009 2.02266,0.0173 3.06463,0.0261 7.90688,-0.12642 14.93095,-2.16827 20.57062,-7.96681 0.42281,-0.73219 0.84562,-1.46438 1.28125,-2.21875 0.44344,-0.73219 0.88688,-1.46438 1.34375,-2.21875 0.38156,-0.75281 0.76312,-1.50563 1.15625,-2.28125 0.52229,-0.99793 0.52229,-0.99793 1.05513,-2.01602 1.3739,-4.3389 1.23051,-8.4833 1.21902,-13.00893 0.005,-1.0181 0.0105,-2.03621 0.0159,-3.08516 0.015,-3.41606 0.0157,-6.83196 0.0164,-10.24804 0.008,-2.44754 0.016,-4.89508 0.0252,-7.34261 0.022,-6.65307 0.0308,-13.30607 0.0358,-19.95917 0.003,-4.15686 0.01,-8.31371 0.017,-12.47057 0.0196,-11.51663 0.036,-23.03325 0.0389,-34.54989 2.8e-4,-1.10507 2.8e-4,-1.10507 5.7e-4,-2.23246 3.7e-4,-1.4934 7.3e-4,-2.98681 0.001,-4.48021 1.9e-4,-0.74129 3.7e-4,-1.48259 5.6e-4,-2.24634 1.8e-4,-0.74221 3.6e-4,-1.48441 5.4e-4,-2.2491 0.004,-12.02075 0.0306,-24.04132 0.0679,-36.062 0.0381,-12.35125 0.0575,-24.70242 0.0577,-37.05373 5.9e-4,-6.93086 0.009,-13.86151 0.038,-20.79232 0.0271,-6.52125 0.0284,-13.04216 0.0123,-19.56348 -0.002,-2.39046 0.005,-4.78095 0.0208,-7.17135 0.0205,-3.27009 0.01,-6.53869 -0.008,-9.80875 0.0198,-1.4103 0.0198,-1.4103 0.04,-2.84909 -0.0951,-7.54664 -2.27119,-14.11283 -7.43944,-19.76133 -5.62887,-5.27693 -11.57308,-6.34548 -19.1484,-6.3683 -1.15711,-0.0151 -1.15711,-0.0151 -2.3376,-0.0304 -2.53215,-0.0307 -5.0642,-0.0478 -7.59648,-0.0648 -1.76263,-0.0187 -3.52526,-0.0383 -5.28787,-0.0587 -4.62606,-0.0512 -9.25214,-0.0909 -13.87833,-0.12814 -4.72592,-0.0401 -9.45172,-0.0912 -14.17755,-0.1413 C 419.52613,341.16116 410.26312,341.07672 401,341 c -0.80748,-8.9843 -1.18287,-17.85344 -1.1875,-26.875 -0.0122,-1.27875 -0.0245,-2.5575 -0.0371,-3.875 -0.002,-1.23492 -0.004,-2.46984 -0.006,-3.74219 -0.004,-1.10714 -0.008,-2.21428 -0.0125,-3.35498 0.25753,-3.34241 1.09346,-6.01668 2.24292,-9.15283 0.37945,-2.4069 0.37945,-2.4069 0.375,-4.6875 0.0284,-0.74637 0.0567,-1.49273 0.0859,-2.26172 -0.30627,-2.20187 -0.30627,-2.20187 -2.1875,-3.81641 C 396.19158,281.01811 392.36165,281.83382 388,283 c -10.3872,5.30691 -17.01232,15.89239 -22,26 -1.19394,-3.58181 -0.83196,-4.13814 0.75,-7.4375 3.97098,-7.63823 10.21735,-13.52985 16.25,-19.5625 0.99,0 1.98,0 3,0 0,-0.66 0,-1.32 0,-2 4.27415,-2.13708 8.29983,-2.7976 13,-2 z"
     fill="#f7f8f9"
     id="path12" />
  <path
     d="m 338,448 c 11.55,0 23.1,0 35,0 0,2.97 0,5.94 0,9 2.64,0 5.28,0 8,0 0,7.26 0,14.52 0,22 -2.64,0 -5.28,0 -8,0 0,2.97 0,5.94 0,9 -8.58,0 -17.16,0 -26,0 0,7.59 0,15.18 0,23 -2.97,0 -5.94,0 -9,0 0,-20.79 0,-41.58 0,-63 z"
     fill="#f8f9f8"
     id="path13" />
  <path
     d="m 251.591,669.85283 c 1.18889,-0.007 2.37778,-0.0143 3.6027,-0.0217 1.31118,-0.003 2.62237,-0.005 3.97329,-0.008 1.38956,-0.006 2.77912,-0.0129 4.16867,-0.0199 3.78115,-0.0174 7.56229,-0.028 11.34347,-0.0362 2.36228,-0.005 4.72456,-0.0112 7.08684,-0.0175 7.39074,-0.0191 14.78148,-0.0333 22.17224,-0.0416 8.53171,-0.01 17.06317,-0.0361 25.59479,-0.0765 6.59371,-0.0302 13.18735,-0.045 19.78113,-0.0483 3.93838,-0.002 7.87649,-0.0113 11.8148,-0.0365 3.7068,-0.0233 7.41315,-0.0275 11.12001,-0.0172 2.00512,7.3e-4 4.01022,-0.0184 6.01525,-0.0381 10.94656,0.0633 10.94656,0.0633 15.73581,4.50879 2.41636,2.658 3,3.35294 3,7 -52.8,0 -105.6,0 -160,0 3.06485,-7.66212 6.43639,-11.11358 14.591,-11.14717 z"
     fill="#315565"
     id="path14" />
  <path
     d="m 284.13786,640.87558 c 0.73512,0.004 1.47023,0.007 2.22762,0.0109 0.77068,-1.4e-4 1.54135,-2.9e-4 2.33539,-4.4e-4 2.55937,7e-4 5.11867,0.008 7.67804,0.0163 1.76977,0.002 3.53954,0.003 5.30931,0.004 4.66729,0.004 9.33456,0.0137 14.00184,0.0247 4.75891,0.0102 9.51782,0.0148 14.27674,0.0198 9.34441,0.0107 18.6888,0.0278 28.0332,0.0488 0.17285,1.47846 0.33784,2.95783 0.5,4.4375 0.0928,0.82371 0.18562,1.64742 0.28125,2.49609 C 359.0675,651.94619 359,655.9772 359,660 c -27.72,0 -55.44,0 -84,0 1.13514,-10.21622 1.13514,-10.21622 2,-14 0.165,-0.7425 0.33,-1.485 0.5,-2.25 1.04333,-3.65167 3.22112,-2.86737 6.63786,-2.87442 z M 279,647 c -0.33,1.65 -0.66,3.3 -1,5 0.66,0 1.32,0 2,0 0,-1.65 0,-3.3 0,-5 -0.33,0 -0.66,0 -1,0 z m -2,6 c -0.33,1.32 -0.66,2.64 -1,4 0.99,-0.33 1.98,-0.66 3,-1 -0.66,-0.99 -1.32,-1.98 -2,-3 z"
     fill="#2c5563"
     id="path15" />
  <path
     d="m 198.74506,350.75949 c 1.0158,-0.003 1.0158,-0.003 2.05213,-0.005 2.26791,-0.003 4.53552,0.008 6.8034,0.0186 1.62618,5.6e-4 3.25237,2.5e-4 4.87855,-8.9e-4 4.41496,-5.7e-4 8.82981,0.0112 13.24474,0.0251 4.61378,0.0125 9.22757,0.0137 13.84137,0.0161 8.73701,0.006 17.47397,0.0226 26.21095,0.0427 9.9467,0.0224 19.89339,0.0334 29.8401,0.0434 20.46126,0.0209 40.92248,0.0561 61.3837,0.10065 -0.33,1.65 -0.66,3.3 -1,5 -1.2286,0.002 -1.2286,0.002 -2.48202,0.004 -19.93055,0.0371 -39.86093,0.096 -59.79134,0.17946 -9.63821,0.0398 -19.27634,0.0722 -28.91463,0.0871 -8.40083,0.013 -16.80148,0.0399 -25.20221,0.0836 -4.44807,0.0226 -8.89593,0.0383 -13.34407,0.0373 -4.18783,-7.4e-4 -8.37516,0.0172 -12.56285,0.0493 -1.53584,0.009 -3.07173,0.0102 -4.60758,0.005 -2.10042,-0.007 -4.19929,0.0113 -6.29955,0.0352 -1.17437,0.004 -2.34873,0.007 -3.55868,0.0112 -3.96191,0.62152 -6.12243,2.02204 -9.23707,4.50781 -2.34737,3.52106 -2.2503,4.94367 -2.25156,9.11108 -0.008,1.91811 -0.008,1.91811 -0.0163,3.87497 0.004,1.42002 0.008,2.84003 0.0125,4.26004 -0.003,1.4931 -0.006,2.98619 -0.011,4.47928 -0.008,3.21666 -0.0103,6.43324 -0.008,9.6499 0.003,5.08387 -0.0115,10.1676 -0.029,15.25144 -0.0471,14.45676 -0.071,28.91352 -0.0775,43.37036 -0.004,7.9833 -0.0217,15.96644 -0.0551,23.94967 -0.0203,5.05633 -0.0226,10.11226 -0.0117,15.16862 0.003,3.14249 -0.0114,6.28475 -0.0301,9.42718 -0.005,1.45971 -0.004,2.91946 0.005,4.37916 0.0111,1.98905 -0.005,3.9782 -0.0218,5.96722 -0.001,1.11423 -0.002,2.22847 -0.003,3.37648 C 187,516 187,516 184.9684,517.88194 183.99404,518.43538 183.99404,518.43538 183,519 c -0.11681,-20.75772 -0.20497,-41.51538 -0.25906,-62.27336 -0.0258,-9.63832 -0.0609,-19.27644 -0.11814,-28.91463 -0.0498,-8.40074 -0.0821,-16.80133 -0.0932,-25.20221 -0.007,-4.44821 -0.0218,-8.896 -0.0582,-13.34407 -0.034,-4.18778 -0.0444,-8.37495 -0.0369,-12.56285 -0.001,-1.5359 -0.0113,-3.07181 -0.0305,-4.60758 -0.15504,-13.05228 -0.15504,-13.05228 2.88151,-16.93084 4.6452,-3.70391 7.47147,-4.41407 13.45958,-4.40497 z"
     fill="#8fafbc"
     id="path16" />
  <path
     d="m 323,246 c 0.33,0 0.66,0 1,0 0.80364,20.18022 -6.52485,35.19606 -18.5,51 -10.81388,14.29569 -16.0109,26.09891 -16.5,44 -1.65,0 -3.3,0 -5,0 -0.50746,-11.51643 0.43711,-20.9459 4,-32 0.23848,-0.87527 0.47695,-1.75055 0.72266,-2.65234 1.92998,-6.76073 5.77667,-11.36282 10.23437,-16.6836 4.30186,-5.21487 7.7489,-10.38186 10.81641,-16.41406 1.37006,-2.51323 2.95027,-4.01055 5.10156,-5.875 4.9573,-5.54051 6.55658,-11.02323 6.94922,-18.37109 C 322,247 322,247 323,246 Z"
     fill="#404a52"
     id="path17" />
  <path
     d="m 300,243 c 1.65,0 3.3,0 5,0 0.76022,17.71023 -4.70096,31.221 -16.56396,44.27441 -2.44711,2.60709 -4.93575,5.16935 -7.43604,7.72559 -12.31946,13.06187 -19.57755,27.8729 -20,46 -1.65,0 -3.3,0 -5,0 -0.98197,-18.65738 5.26229,-33.31278 17.3125,-46.9375 2.99393,-3.30088 6.08898,-6.42475 9.3125,-9.5 9.29687,-9.18309 14.28566,-19.73197 16.0625,-32.5 0.12955,-0.87463 0.2591,-1.74926 0.39258,-2.65039 C 299.39524,247.27598 299.69882,245.13815 300,243 Z"
     fill="#646d72"
     id="path18" />
  <path
     d="m 152,359 c 0.33,0 0.66,0 1,0 2.25313,29.34668 2.25313,29.34668 -2.50781,34.96875 -3.15392,2.64923 -6.78878,4.27383 -10.49219,6.03125 -2.04588,1.52358 -4.04978,3.10575 -6,4.75 -0.8843,0.72961 -1.76859,1.45922 -2.67969,2.21094 C 127.60172,410.2288 124.59314,413.22058 123,418 c -0.0994,1.92263 -0.13933,3.84854 -0.14717,5.77373 -0.007,1.2042 -0.0143,2.4084 -0.0217,3.64909 -0.003,1.33652 -0.006,2.67304 -0.008,4.00955 -0.006,1.40617 -0.0129,2.81233 -0.0199,4.21849 -0.021,4.62028 -0.0314,9.24055 -0.0414,13.86086 -0.004,1.59187 -0.008,3.18374 -0.0123,4.77561 -0.0191,7.48045 -0.0333,14.96088 -0.0416,22.44135 -0.01,8.62733 -0.0361,17.25441 -0.0765,25.88165 -0.0302,6.67275 -0.045,13.34542 -0.0483,20.01823 -0.002,3.98314 -0.0113,7.96601 -0.0365,11.94908 -0.0233,3.75033 -0.0275,7.50019 -0.0172,11.25057 7.3e-4,2.02382 -0.0183,4.04761 -0.0381,6.07133 0.0457,8.02306 0.73856,13.73007 6.14062,19.99206 0.79326,0.61827 0.79326,0.61827 1.60254,1.24902 0.60393,0.47631 1.20785,0.95262 1.83008,1.44336 3.35402,2.45375 6.73857,4.84445 10.18555,7.16602 0.7064,0.48082 1.41281,0.96164 2.14062,1.45703 2.86065,1.94502 5.73109,3.87411 8.60938,5.79297 0.38476,1.9043 0.38476,1.9043 0.40625,4.21875 0.0197,0.84554 0.0395,1.69109 0.0598,2.56226 0.0168,1.3459 0.0168,1.3459 0.0339,2.71899 0.26759,8.49742 0.79483,15.81798 5.125,23.3125 3.3981,3.12983 7.2644,5.12342 11.375,7.1875 0,0.33 0,0.66 0,1 -1.65,0 -3.3,0 -5,0 0,-0.66 0,-1.32 0,-2 -0.83532,-0.0928 -0.83532,-0.0928 -1.6875,-0.1875 -4.5154,-1.58649 -6.4824,-4.3292 -8.74219,-8.36719 C 150.17989,609.69708 150.50109,600.49924 151,590 c -1.65,-0.66 -3.3,-1.32 -5,-2 0,-0.66 0,-1.32 0,-2 -1.05187,-0.37125 -1.05187,-0.37125 -2.125,-0.75 -3.27014,-1.4218 -6.01612,-3.12246 -8.875,-5.25 0,-0.66 0,-1.32 0,-2 -0.55688,-0.0825 -1.11375,-0.165 -1.6875,-0.25 -5.465,-1.77243 -8.59729,-5.88134 -11.3125,-10.75 -2.3229,-7.13016 -2.28948,-13.96372 -2.27466,-21.41748 -0.004,-1.34455 -0.01,-2.68909 -0.0155,-4.03363 -0.0133,-3.63234 -0.014,-7.26458 -0.0114,-10.89694 10e-4,-3.04151 -0.004,-6.083 -0.009,-9.1245 -0.0111,-7.18055 -0.0115,-14.36105 -0.005,-21.54161 0.006,-7.3868 -0.006,-14.77341 -0.0276,-22.16017 -0.0177,-6.36121 -0.0236,-12.72236 -0.0204,-19.0836 0.002,-3.7908 -7.5e-4,-7.58147 -0.0147,-11.37225 -0.0127,-3.56733 -0.0106,-7.13437 0.002,-10.70169 0.004,-1.91839 -0.008,-3.83678 -0.0196,-5.75514 0.0495,-8.21432 0.55096,-16.01029 5.51657,-22.82315 0.76442,-0.71027 1.52883,-1.42054 2.31641,-2.15234 1.14275,-1.10021 1.14275,-1.10021 2.30859,-2.22266 2.18584,-1.66303 3.57038,-2.3175 6.25394,-2.71484 0,-0.66 0,-1.32 0,-2 0.66,0 1.32,0 2,0 0,-0.66 0,-1.32 0,-2 1.98,-0.495 1.98,-0.495 4,-1 0,-0.66 0,-1.32 0,-2 1.29979,-0.79044 2.61688,-1.55253 3.94141,-2.30078 2.85829,-2.07458 3.90886,-3.11545 4.79638,-6.57568 0.2385,-3.45748 0.26996,-6.84616 0.19971,-10.31104 0.006,-2.34767 0.0154,-4.69533 0.0273,-7.04297 -0.0143,-1.03536 -0.0285,-2.07072 -0.0432,-3.13745 C 151,362 151,362 152,359 Z"
     fill="#b5b7ba"
     id="path19" />
  <path
     d="m 347,457 c 8.25,0 16.5,0 25,0 0,7.26 0,14.52 0,22 -8.25,0 -16.5,0 -25,0 0,-7.26 0,-14.52 0,-22 z"
     fill="#454649"
     id="path20" />
  <path
     d="m 258,176 c 0.33,0 0.66,0 1,0 -0.0157,0.6036 -0.0314,1.20721 -0.0476,1.8291 -0.44965,19.90609 1.49935,36.03519 14.75855,51.90527 4.59217,4.54515 10.14668,8.21817 16.28906,10.26563 0.8802,14.73514 -3.62775,26.09321 -13.3125,37.0625 -2.95506,3.19265 -6.0256,6.20218 -9.1875,9.1875 -8.41346,8.33979 -14.09297,18.45209 -17.5,29.75 -0.32235,0.83789 -0.64469,1.67578 -0.97681,2.53906 -1.3082,4.42499 -1.72721,8.75352 -2.14819,13.33594 -0.0864,0.87914 -0.17273,1.75828 -0.26172,2.66406 -0.21062,2.15305 -0.41281,4.30692 -0.61328,6.46094 -1.38276,0.005 -1.38276,0.005 -2.79346,0.0111 -8.70968,0.0379 -17.41898,0.0949 -26.1284,0.17285 -4.47707,0.0394 -8.95395,0.0716 -13.43117,0.0871 -4.32502,0.0152 -8.64951,0.0497 -12.9743,0.0973 -1.64567,0.0148 -3.29141,0.0227 -4.93714,0.0236 -13.48172,-0.0445 -13.48172,-0.0445 -24.97772,6.57296 -4.20155,5.03391 -4.20155,5.03391 -6.75782,11.03509 -1.05057,-3.15871 -1.0583,-4.80501 0.375,-7.8125 2.75272,-5.1397 7.70648,-9.85928 13.31073,-11.7589 3.20155,-0.59293 6.30549,-0.59516 9.56134,-0.63392 0.72235,-0.01 1.4447,-0.0198 2.18893,-0.03 2.38068,-0.0315 4.76137,-0.0563 7.14213,-0.0811 1.65338,-0.0206 3.30676,-0.0416 4.96014,-0.063 4.34662,-0.0551 8.69328,-0.10458 13.03998,-0.15285 4.4375,-0.0503 8.87493,-0.10593 13.31237,-0.16113 8.70307,-0.10743 17.4062,-0.2089 26.10938,-0.3066 0.12407,-1.21889 0.24814,-2.43778 0.37598,-3.6936 0.17128,-1.6243 0.34285,-3.24856 0.51464,-4.87281 0.0807,-0.80038 0.16146,-1.60077 0.24463,-2.42541 C 246.48685,314.39006 250.64305,301.8064 259,292 c 0.66,0 1.32,0 2,0 0.66,-1.65 1.32,-3.3 2,-5 0.66,0 1.32,0 2,0 0.495,-1.485 0.495,-1.485 1,-3 0.66,0 1.32,0 2,0 0.40219,-0.89719 0.40219,-0.89719 0.8125,-1.8125 1.18667,-2.18598 2.28349,-3.60083 4.1875,-5.1875 0.66,0 1.32,0 2,0 0.2707,-0.58781 0.54141,-1.17563 0.82031,-1.78125 1.16435,-2.1899 2.45709,-3.83142 4.05469,-5.71875 6.35053,-8.38456 7.76084,-18.23067 8.125,-28.5 -2.97,-0.495 -2.97,-0.495 -6,-1 0,-0.66 0,-1.32 0,-2 -0.73605,-0.2475 -1.47211,-0.495 -2.23047,-0.75 -3.03307,-1.36895 -4.76743,-2.87874 -7.08203,-5.25 -0.69738,-0.70125 -1.39477,-1.4025 -2.11328,-2.125 C 269,228 269,228 269,226 c -0.66,0 -1.32,0 -2,0 -4.2064,-7.79048 -7.6667,-15.02337 -9.49219,-23.76953 -0.29054,-2.1907 -0.29054,-2.1907 -1.50781,-3.23047 -0.42724,-7.87903 -0.46624,-15.44715 2,-23 z"
     fill="#e3e5e7"
     id="path21" />
  <path
     d="m 401,470 c 2.97,0 5.94,0 9,0 0,2.64 0,5.28 0,8 2.64,0 5.28,0 8,0 0,-2.64 0,-5.28 0,-8 2.97,0 5.94,0 9,0 0,2.97 0,5.94 0,9 -2.64,0 -5.28,0 -8,0 0,10.56 0,21.12 0,32 -3.3,0 -6.6,0 -10,0 0,-10.56 0,-21.12 0,-32 -2.64,0 -5.28,0 -8,0 0,-2.97 0,-5.94 0,-9 z"
     fill="#fcfdfc"
     id="path22" />
  <path
     d="m 288.54419,351.77295 c 0.742,-2.9e-4 1.484,-5.8e-4 2.24849,-8.9e-4 2.44032,10e-4 4.88033,0.0169 7.3206,0.0326 1.69679,0.004 3.39359,0.007 5.09038,0.009 4.45685,0.008 8.91357,0.0273 13.37038,0.0494 4.55147,0.0205 9.10297,0.0296 13.65448,0.0397 8.92388,0.0214 17.84767,0.0555 26.77148,0.0977 -0.33,1.32 -0.66,2.64 -1,4 -51.81,0 -103.62,0 -157,0 0,-0.33 0,-0.66 0,-1 10.395,-0.495 10.395,-0.495 21,-1 0,-0.33 0,-0.66 0,-1 7.33235,-0.0253 14.66469,-0.0429 21.99707,-0.0549 2.4948,-0.005 4.98959,-0.0119 7.48438,-0.0205 3.58431,-0.0121 7.16859,-0.0178 10.75293,-0.0222 1.11679,-0.005 2.23358,-0.0103 3.38421,-0.0156 1.56117,-1.1e-4 1.56117,-1.1e-4 3.15387,-2.3e-4 0.91489,-0.002 1.82978,-0.004 2.7724,-0.007 C 272,353 272,353 274.01422,353.6321 c 2.07671,0.56896 2.07671,0.56896 4.26427,-0.55541 3.4547,-1.36676 6.61115,-1.34168 10.2657,-1.30374 z"
     fill="#a6cbd9"
     id="path23" />
  <path
     d="m 183,361 c 0.33,0 0.66,0 1,0 0,2.97 0,5.94 0,9 0.66,0 1.32,0 2,0 0.07,19.13185 0.12295,38.26368 0.15544,57.39564 0.0155,8.88281 0.0366,17.76554 0.0709,26.64831 0.0298,7.74001 0.0492,15.47996 0.0559,23.22003 0.004,4.10032 0.0132,8.20049 0.0349,12.30076 0.0203,3.85607 0.0267,7.71191 0.0221,11.56803 8.3e-4,1.41823 0.007,2.83646 0.0183,4.25463 0.0148,1.93041 0.01,3.86095 0.003,5.7914 0.003,1.08219 0.006,2.16437 0.008,3.27935 -0.12181,0.83881 -0.24363,1.67762 -0.36914,2.54185 -1.485,0.99 -1.485,0.99 -3,2 0,-52.14 0,-104.28 0,-158 z"
     fill="#aaccd7"
     id="path24" />
  <path
     d="m 391,292 c 0.495,0.99 0.495,0.99 1,2 -1.10988,0.75604 -1.10988,0.75604 -2.24219,1.52734 -3.36926,3.02089 -4.94895,6.00309 -6.88281,10.03516 -0.33387,0.65291 -0.66773,1.30582 -1.01172,1.97852 -4.55724,9.26639 -6.20709,18.54165 -6.80078,28.77148 -1.17583,15.81258 -4.27783,28.99721 -16.25,40.19531 C 351.34819,382.653 341.32386,384.36582 332,386 c -0.66,-0.33 -1.32,-0.66 -2,-1 3.17504,-1.41113 6.2907,-2.76961 9.59766,-3.84375 C 350.75852,377.51445 358.27924,371.32998 364,361 c 2.98442,-6.61353 3.70663,-12.81733 4.375,-20 1.94659,-18.09864 6.09187,-35.75813 20.625,-48 0.66,-0.33 1.32,-0.66 2,-1 z"
     fill="#919c9f"
     id="path25" />
  <path
     d="m 293,150 c 0.99,0.33 1.98,0.66 3,1 0,2.625 0,2.625 -1,6 -1.84786,1.68027 -3.81933,3.02837 -5.875,4.44531 -7.2712,5.31974 -13.03379,14.38717 -14.83984,23.20703 -1.62228,13.35604 0.75145,24.22446 7.85937,35.60547 0.42346,0.86239 0.42346,0.86239 0.85547,1.74219 -0.495,0.99 -0.495,0.99 -1,2 -9.47379,-9.52984 -14.04221,-19.72415 -14.3125,-33.125 0.12583,-12.84676 4.5367,-23.05271 13.58984,-32.16797 C 284.93851,155.36263 288.54612,152.24135 293,150 Z"
     fill="#777f86"
     id="path26" />
  <path
     d="m 402,351 c 9.65785,-0.0696 19.31562,-0.12288 28.97367,-0.15544 4.48502,-0.0156 8.96987,-0.0368 13.4548,-0.0709 4.33126,-0.0327 8.66236,-0.0505 12.99374,-0.0583 1.64935,-0.006 3.2987,-0.0163 4.94799,-0.0326 2.31698,-0.0219 4.63329,-0.0248 6.95036,-0.0234 1.31682,-0.007 2.63364,-0.0133 3.99037,-0.0202 5.60708,0.54833 9.43869,1.89156 13.18907,6.29826 1.5,3.0625 1.5,3.0625 1.25,5.4375 -0.37125,0.80437 -0.37125,0.80437 -0.75,1.625 -0.43313,-0.96938 -0.86625,-1.93875 -1.3125,-2.9375 -1.38899,-3.33982 -1.38899,-3.33982 -4.6875,-4.0625 -2.53894,-0.11956 -5.05258,-0.18524 -7.59253,-0.20532 -0.77097,-0.01 -1.54194,-0.0198 -2.33627,-0.03 -2.54844,-0.0316 -5.0969,-0.0564 -7.64542,-0.0811 -1.76692,-0.0206 -3.53383,-0.0416 -5.30073,-0.063 -4.65078,-0.0552 -9.30159,-0.10462 -13.95244,-0.15285 -4.74573,-0.0502 -9.49139,-0.10591 -14.23706,-0.16113 C 420.62375,356.19909 411.3119,356.09764 402,356 c 0,-1.65 0,-3.3 0,-5 z"
     fill="#9cc1d1"
     id="path27" />
  <path
     d="m 294,-22 c 0.66,0 1.32,0 2,0 0,53.13 0,106.26 0,161 -4.62,2.31 -9.24,4.62 -14,7 -8.97625,7.2422 -15.02396,14.40088 -19.92188,24.80078 C 261,173 261,173 259,176 c 0.42018,-9.45412 6.2671,-17.75845 12,-25 3.3871,-3 3.3871,-3 6,-3 0,-0.66 0,-1.32 0,-2 4.38462,-3 4.38462,-3 7,-3 0,-0.66 0,-1.32 0,-2 6.625,-3 6.625,-3 10,-3 0,-52.8 0,-105.6 0,-160 z"
     fill="#a8abae"
     id="path28" />
  <path
     d="m 327,-22 c 0.33,0 0.66,0 1,0 0,52.8 0,105.6 0,160 2.31,0.33 4.62,0.66 7,1 2.4375,1.0625 2.4375,1.0625 4,2 0,0.66 0,1.32 0,2 1.65,0.33 3.3,0.66 5,1 0,0.66 0,1.32 0,2 0.66,0 1.32,0 2,0 0,0.66 0,1.32 0,2 1.09828,0.32871 1.09828,0.32871 2.21875,0.66406 7.9408,3.81426 12.90258,14.6199 15.85156,22.48047 3.65418,11.22356 5.15988,24.58222 0.92969,35.85547 -0.5298,1.41732 -0.5298,1.41732 -1.07031,2.86328 C 360.44948,218.65135 356.20937,225.90358 350,233 c -0.99,-0.33 -1.98,-0.66 -3,-1 0.49629,-0.47566 0.99258,-0.95133 1.50391,-1.44141 C 355.00953,223.85546 358.52316,216.54175 362,208 c 0.38801,-0.9423 0.77602,-1.88461 1.17578,-2.85547 3.51564,-13.41274 1.22558,-29.22602 -5.23828,-41.26953 C 350.31089,151.72009 340.51635,144.50545 327,140 c 0,-53.46 0,-106.92 0,-162 z"
     fill="#c1c5c6"
     id="path29" />
  <path
     d="m 252.26562,670.60937 c 0.7934,0.006 1.5868,0.0113 2.40424,0.0172 2.52733,0.0223 5.05324,0.0725 7.58014,0.12347 1.71613,0.0201 3.43227,0.0383 5.14844,0.0547 4.20107,0.044 8.40107,0.11305 12.60156,0.19531 -0.99,2.97 -1.98,5.94 -3,9 -12.87,0 -25.74,0 -39,0 3.22333,-8.05832 5.76018,-9.61962 14.26562,-9.39063 z"
     fill="#a2c6d6"
     id="path30" />
  <path
     d="m 268,634 c 0.33,0 0.66,0 1,0 -0.43099,8.96452 -2.69889,17.37353 -5,26 -1.29035,0.0374 -2.5807,0.0748 -3.91016,0.11328 -1.71747,0.0657 -3.43492,0.13214 -5.15234,0.19922 -0.84756,0.0226 -1.69512,0.0451 -2.56836,0.0684 -8.79313,0.37341 -15.32837,3.04624 -21.36914,9.6191 -4.302,6.8832 -3.36953,12.17342 -4,21 59.4,0 118.8,0 180,0 0,-4.29 0,-8.58 0,-13 0.33,0 0.66,0 1,0 0,4.62 0,9.24 0,14 -60.06,0 -120.12,0 -182,0 0,-20.83399 0,-20.83399 5.97656,-27.05859 C 236.82051,660.56424 239.3694,658.85586 246,659 c 0,-0.66 0,-1.32 0,-2 3.3,0 6.6,0 10,0 0,0.66 0,1.32 0,2 2.31,0 4.62,0 7,0 0.10957,-0.71543 0.21914,-1.43086 0.33203,-2.16797 C 264.55715,649.13269 266.16699,641.57644 268,634 Z"
     fill="#b3b7ba"
     id="path31" />
  <path
     d="m 366,628 c 37.62,0 75.24,0 114,0 0,0.66 0,1.32 0,2 -36.96,0 -73.92,0 -112,0 0,8.91 0,17.82 0,27 -0.33,0 -0.66,0 -1,0 -1.36789,-9.5752 -1,-19.32759 -1,-29 z"
     fill="#2b333a"
     id="path32" />
  <path
     d="m 401,470 c 2.97,0 5.94,0 9,0 0,2.64 0,5.28 0,8 2.64,0 5.28,0 8,0 0,-2.64 0,-5.28 0,-8 2.97,0 5.94,0 9,0 0,2.97 0,5.94 0,9 -2.64,0 -5.28,0 -8,0 0,10.56 0,21.12 0,32 -3.3,0 -6.6,0 -10,0 0,-10.56 0,-21.12 0,-32 -2.64,0 -5.28,0 -8,0 0,-2.97 0,-5.94 0,-9 z m 9,9 c 0,10.23 0,20.46 0,31 2.64,0 5.28,0 8,0 0,-10.23 0,-20.46 0,-31 -2.64,0 -5.28,0 -8,0 z"
     fill="#bebfbf"
     id="path33" />
  <path
     d="m 220,353 c 17.16,0 34.32,0 52,0 0,0.33 0,0.66 0,1 20.46,0.33 40.92,0.66 62,1 0,0.33 0,0.66 0,1 -44.55,0 -89.1,0 -135,0 0,-0.33 0,-0.66 0,-1 10.395,-0.495 10.395,-0.495 21,-1 0,-0.33 0,-0.66 0,-1 z"
     fill="#9cc4d2"
     id="path34" />
  <path
     d="m 309,308 c 0,3 0,3 -1.75,5.5 -5.51696,7.9515 -6.37831,15.91146 -7.25,25.5 19.14,0 38.28,0 58,0 0,-2.97 0,-5.94 0,-9 1.08904,-7.30662 2.68708,-14.37417 6,-21 1.29544,3.88633 0.25233,6.5705 -0.8125,10.375 -2.00609,7.19876 -3.03471,14.13184 -4.1875,21.625 -19.8,0 -39.6,0 -60,0 0,-17.95455 0,-17.95455 5,-27 0.32227,-0.90363 0.64453,-1.80727 0.97656,-2.73828 0.33774,-0.74637 0.67547,-1.49274 1.02344,-2.26172 0.99,-0.33 1.98,-0.66 3,-1 z"
     fill="#eff1f2"
     id="path35" />
  <path
     d="m 368,351 c 0.495,1.98 0.495,1.98 1,4 0.66,0 1.32,0 2,0 -0.3792,8.91124 -5.84244,15.57299 -12.1875,21.50781 C 351.34819,382.653 341.32386,384.36582 332,386 c -0.66,-0.33 -1.32,-0.66 -2,-1 3.17504,-1.41113 6.2907,-2.76961 9.59766,-3.84375 C 350.86062,377.48113 358.12286,371.30784 364,361 c 1.51224,-3.27951 2.82991,-6.58421 4,-10 z"
     fill="#a1aaaf"
     id="path36" />
  <path
     d="m 427,448 c 2.97,0 5.94,0 9,0 0,7.26 0,14.52 0,22 -2.97,0 -5.94,0 -9,0 0,-7.26 0,-14.52 0,-22 z"
     fill="#fbfcfa"
     id="path37" />
  <path
     d="m 392,448 c 2.97,0 5.94,0 9,0 0,7.26 0,14.52 0,22 -2.97,0 -5.94,0 -9,0 0,-7.26 0,-14.52 0,-22 z"
     fill="#fbfbfa"
     id="path38" />
  <path
     d="m 340,596 c 2.4375,1.5625 2.4375,1.5625 4,4 0.56288,3.94016 0.60396,6.05782 -1.5625,9.4375 -3.40469,2.1825 -5.4718,2.19984 -9.4375,1.5625 -2.5,-2.0625 -2.5,-2.0625 -4,-5 0.0602,-3.49306 0.36342,-5.90366 2.125,-8.9375 3.05952,-1.73373 5.44318,-1.48395 8.875,-1.0625 z"
     fill="#0f2031"
     id="path39" />
  <path
     d="m 183,427 c 0.33,0 0.66,0 1,0 0.33,3.96 0.66,7.92 1,12 0.33,0 0.66,0 1,0 0.0694,10.13535 0.12277,20.27065 0.15544,30.40619 0.0157,4.706 0.037,9.41183 0.0709,14.11774 0.0325,4.53872 0.0505,9.07729 0.0583,13.61612 0.006,1.73443 0.0164,3.46885 0.0326,5.20321 0.0217,2.42337 0.0248,4.84608 0.0234,7.26953 0.0108,0.72217 0.0216,1.44434 0.0327,2.18839 -0.0125,1.99713 -0.0125,1.99713 -0.37326,5.19882 -1.485,0.99 -1.485,0.99 -3,2 0,-30.36 0,-60.72 0,-92 z"
     fill="#b2d4df"
     id="path40" />
  <path
     d="m 121,559 c 1.90912,2.86368 3.18358,5.61599 4.51172,8.76953 4.02037,6.02529 10.82224,9.99597 16.73828,13.98047 0.70641,0.48082 1.41281,0.96164 2.14063,1.45703 2.86064,1.94502 5.73109,3.87411 8.60937,5.79297 0.38477,1.9043 0.38477,1.9043 0.40625,4.21875 0.0197,0.84554 0.0395,1.69109 0.0598,2.56226 0.0168,1.3459 0.0168,1.3459 0.0339,2.71899 0.26759,8.49742 0.79484,15.81798 5.125,23.3125 3.3981,3.12983 7.2644,5.12342 11.375,7.1875 0,0.33 0,0.66 0,1 -1.65,0 -3.3,0 -5,0 0,-0.66 0,-1.32 0,-2 -0.55688,-0.0619 -1.11375,-0.12375 -1.6875,-0.1875 -4.5154,-1.58649 -6.4824,-4.3292 -8.74219,-8.36719 C 150.17989,609.69708 150.50109,600.49924 151,590 c -1.65,-0.66 -3.3,-1.32 -5,-2 0,-0.66 0,-1.32 0,-2 -0.70125,-0.2475 -1.4025,-0.495 -2.125,-0.75 -3.27014,-1.4218 -6.01612,-3.12246 -8.875,-5.25 0,-0.66 0,-1.32 0,-2 -0.55688,-0.0825 -1.11375,-0.165 -1.6875,-0.25 -5.43264,-1.76194 -8.67895,-5.85913 -11.3125,-10.75 -0.58509,-2.70117 -0.80891,-5.22919 -1,-8 z"
     fill="#eaeced"
     id="path41" />
  <path
     d="m 152,359 c 0.33,0 0.66,0 1,0 2.25313,29.34668 2.25313,29.34668 -2.50781,34.96875 -3.15392,2.64923 -6.78878,4.27383 -10.49219,6.03125 -2.04588,1.52358 -4.04978,3.10575 -6,4.75 -0.88559,0.73219 -1.77117,1.46438 -2.68359,2.21875 -4.32699,3.79432 -7.51075,7.45014 -9.31641,13.03125 -1.15334,-2.72608 -1.02929,-3.91409 -0.0625,-6.75 2.93692,-4.62787 6.91646,-10.2304 12.31641,-11.98047 0.57621,-0.0889 1.15242,-0.17789 1.74609,-0.26953 0,-0.66 0,-1.32 0,-2 0.66,0 1.32,0 2,0 0,-0.66 0,-1.32 0,-2 1.98,-0.495 1.98,-0.495 4,-1 0,-0.66 0,-1.32 0,-2 1.29979,-0.79044 2.61688,-1.55253 3.94141,-2.30078 2.85829,-2.07458 3.90886,-3.11545 4.79638,-6.57568 0.2385,-3.45748 0.26996,-6.84616 0.19971,-10.31104 0.006,-2.34767 0.0154,-4.69533 0.0273,-7.04297 -0.0143,-1.03536 -0.0285,-2.07072 -0.0432,-3.13745 C 151,362 151,362 152,359 Z"
     fill="#e0e2e4"
     id="path42" />
  <path
     d="m 258,176 c 0.33,0 0.66,0 1,0 -0.0157,0.6036 -0.0314,1.20721 -0.0476,1.8291 -0.44965,19.90609 1.49935,36.03519 14.75855,51.90527 4.59217,4.54515 10.14668,8.21817 16.28906,10.26563 0,3.3 0,6.6 0,10 -0.66,0 -1.32,0 -2,0 0,-2.97 0,-5.94 0,-9 -1.98,-0.33 -3.96,-0.66 -6,-1 0,-0.66 0,-1.32 0,-2 -0.73605,-0.2475 -1.47211,-0.495 -2.23047,-0.75 -3.03307,-1.36895 -4.76743,-2.87874 -7.08203,-5.25 -1.04607,-1.05188 -1.04607,-1.05188 -2.11328,-2.125 C 269,228 269,228 269,226 c -0.66,0 -1.32,0 -2,0 -4.2064,-7.79048 -7.6667,-15.02337 -9.49219,-23.76953 -0.29054,-2.1907 -0.29054,-2.1907 -1.50781,-3.23047 -0.42724,-7.87903 -0.46624,-15.44715 2,-23 z"
     fill="#dee0e2"
     id="path43" />
  <path
     d="m 368,639 c 2.84614,2.84614 2.45579,5.80369 2.625,9.625 0.058,1.05961 0.058,1.05961 0.11719,2.14062 0.0943,1.74437 0.17714,3.48934 0.25781,5.23438 1.79244,0.0561 1.79244,0.0561 3.62109,0.11328 15.68022,0.60765 15.68022,0.60765 23.37891,3.88672 0,0.66 0,1.32 0,2 0.66,0 1.32,0 2,0 0,0.66 0,1.32 0,2 0.86625,0.30938 0.86625,0.30938 1.75,0.625 3.18016,1.94343 4.49341,4.11277 6.25,7.375 0.25,3.375 0.25,3.375 0,6 -2,-3 -2,-3 -3.15625,-5.08594 -3.00701,-5.12241 -5.96986,-8.59337 -11.43359,-11.05078 C 385.47003,659.85324 377.13388,660.15444 369,660 c -0.33,-6.93 -0.66,-13.86 -1,-21 z"
     fill="#f1f3f4"
     id="path44" />
  <path
     d="m 268,634 c 0.33,0 0.66,0 1,0 -0.43099,8.96452 -2.69889,17.37353 -5,26 -1.29035,0.0374 -2.5807,0.0748 -3.91016,0.11328 -1.71747,0.0657 -3.43492,0.13214 -5.15234,0.19922 -0.84756,0.0226 -1.69512,0.0451 -2.56836,0.0684 -8.79996,0.3737 -15.31828,3.05094 -21.36914,9.6191 -4.17666,6.54343 -3.71819,14.44945 -4,22 -0.33,0 -0.66,0 -1,0 -0.81799,-18.51834 -0.81799,-18.51834 4,-25 3.00173,-3.12631 6.10168,-6.05084 10,-8 1.9996,-0.04 4.00047,-0.0435 6,0 0,-0.66 0,-1.32 0,-2 3.3,0 6.6,0 10,0 0,0.66 0,1.32 0,2 2.31,0 4.62,0 7,0 0.10957,-0.71543 0.21914,-1.43086 0.33203,-2.16797 C 264.55715,649.13269 266.16699,641.57644 268,634 Z"
     fill="#edeff0"
     id="path45" />
  <path
     d="m 347,457 c 8.25,0 16.5,0 25,0 0,7.26 0,14.52 0,22 -8.25,0 -16.5,0 -25,0 0,-7.26 0,-14.52 0,-22 z m 2,2 c 0,5.94 0,11.88 0,18 7.26,0 14.52,0 22,0 0,-6.27 0,-12.54 0,-19 -7.44342,-0.0865 -14.60867,0.13043 -22,1 z"
     fill="#4d4d4e"
     id="path46" />
  <path
     d="m 244,338 c 0.495,0.99 0.495,0.99 1,2 -1.24789,0.0121 -1.24789,0.0121 -2.52098,0.0245 -7.87046,0.0782 -15.74076,0.16556 -23.61101,0.26302 -4.0454,0.0498 -8.09079,0.0961 -12.13632,0.13434 -3.90994,0.0371 -7.81966,0.0835 -11.72942,0.13619 -1.48575,0.0184 -2.97155,0.0336 -4.45738,0.0453 -16.67353,0.0388 -16.67353,0.0388 -30.54489,8.39665 -1.88315,2.25595 -3.40532,4.51418 -5,7 -0.66,0.99 -1.32,1.98 -2,3 0.36417,-5.94816 1.92236,-9.61992 6,-14 5.9544,-5.16847 10.36186,-6.11145 18.24707,-6.20532 0.72235,-0.01 1.4447,-0.0198 2.18893,-0.03 2.38068,-0.0315 4.76137,-0.0563 7.14213,-0.0811 1.65338,-0.0206 3.30676,-0.0416 4.96014,-0.063 4.34662,-0.0551 8.69328,-0.10458 13.03998,-0.15285 4.4375,-0.0503 8.87493,-0.10593 13.31237,-0.16113 C 226.59369,338.19917 235.29682,338.0977 244,338 Z"
     fill="#fafbfb"
     id="path47" />
  <path
     d="m 347,233 c 0,0.66 0,1.32 0,2 -3.46154,3 -3.46154,3 -6,3 0,0.66 0,1.32 0,2 -1.65,0.33 -3.3,0.66 -5,1 -0.009,0.58789 -0.0187,1.17579 -0.0283,1.78149 C 335.54267,264.34781 331.56073,282.0561 319,300 c -0.66,0 -1.32,0 -2,0 -0.2475,0.5775 -0.495,1.155 -0.75,1.75 -1.41683,2.5503 -3.12628,4.26786 -5.25,6.25 0,-4.29612 2.55532,-6.41204 5.1875,-9.5625 4.46398,-5.55254 8.23178,-10.73841 10.8125,-17.4375 0.25121,-0.63438 0.50241,-1.26876 0.76123,-1.92236 3.78505,-9.79384 5.50634,-18.31287 5.42627,-28.82764 -0.0277,-9.22826 -0.0277,-9.22826 3.23437,-13.19531 C 339.79655,234.89525 342.91005,233 347,233 Z"
     fill="#d4d8da"
     id="path48" />
  <path
     d="m 278,642 c 2.64,0 5.28,0 8,0 -0.31107,2.06272 -0.62392,4.12516 -0.9375,6.1875 -0.17402,1.14855 -0.34805,2.29711 -0.52734,3.48047 -0.44895,2.79528 -0.95598,5.56137 -1.53516,8.33203 -2.64,0 -5.28,0 -8,0 0.58491,-6.14154 1.54066,-12.0068 3,-18 z m 1,5 c -0.33,1.65 -0.66,3.3 -1,5 0.66,0 1.32,0 2,0 0,-1.65 0,-3.3 0,-5 -0.33,0 -0.66,0 -1,0 z m -2,6 c -0.33,1.32 -0.66,2.64 -1,4 0.99,-0.33 1.98,-0.66 3,-1 -0.66,-0.99 -1.32,-1.98 -2,-3 z"
     fill="#a3c2d3"
     id="path49" />
  <path
     d="m 196.53906,352.12109 c 1.95293,0.0725 1.95293,0.0725 3.94531,0.14649 1.38022,0.0565 2.76043,0.11317 4.14063,0.16992 1.388,0.0532 2.77602,0.10596 4.16406,0.1582 3.40386,0.13001 6.80745,0.26499 10.21094,0.4043 0,0.33 0,0.66 0,1 -0.65073,0.0146 -1.30147,0.0292 -1.97192,0.0442 -2.94746,0.0745 -5.89379,0.17112 -8.84058,0.26831 -1.02416,0.0226 -2.04832,0.0451 -3.10352,0.0684 -0.98291,0.0355 -1.96582,0.0709 -2.97851,0.10742 -0.90597,0.0262 -1.81194,0.0524 -2.74536,0.0794 -2.79248,0.51158 -3.55571,1.30906 -5.36011,3.43237 -0.825,0.55687 -1.65,1.11375 -2.5,1.6875 -3.38683,3.13281 -4.11611,5.94231 -5.5,10.3125 -0.66,0 -1.32,0 -2,0 -1.71107,-9.52098 -1.71107,-9.52098 -0.0234,-13.03125 4.04125,-4.82114 6.52985,-5.08372 12.5625,-4.84766 z"
     fill="#a2c4d1"
     id="path50" />
  <path
     d="m 391,292 c 0.33,0.66 0.66,1.32 1,2 -0.74121,0.51047 -1.48242,1.02094 -2.24609,1.54687 -3.21241,2.86156 -4.96704,5.89386 -6.81641,9.70313 -0.34289,0.69223 -0.68578,1.38445 -1.03906,2.09766 C 378.45142,314.62178 376.58861,322.14055 375,330 c -0.66,0 -1.32,0 -2,0 -2.57253,-8.99305 0.68034,-16.24788 4.88379,-24.12598 C 381.20837,300.29234 385.61104,295.59264 391,292 Z"
     fill="#979fa6"
     id="path51" />
  <path
     d="m 309,308 c 0,3 0,3 -1.75,5.5 -5.75994,8.32219 -6.40926,16.41111 -7.25,26.5 19.47,0 38.94,0 59,0 0,0.33 0,0.66 0,1 -19.8,0 -39.6,0 -60,0 0,-17.95455 0,-17.95455 5,-27 0.32227,-0.90363 0.64453,-1.80727 0.97656,-2.73828 0.33774,-0.74637 0.67547,-1.49274 1.02344,-2.26172 0.99,-0.33 1.98,-0.66 3,-1 z"
     fill="#e0e3e5"
     id="path52" />
  <path
     d="m 294,136 c 0.495,1.485 0.495,1.485 1,3 -0.82242,0.4009 -1.64484,0.8018 -2.49219,1.21484 -13.93332,7.09538 -23.72654,16.35294 -30.42969,30.58594 C 261,173 261,173 259,176 c 0.42018,-9.45412 6.2671,-17.75845 12,-25 3.3871,-3 3.3871,-3 6,-3 0,-0.66 0,-1.32 0,-2 4.38462,-3 4.38462,-3 7,-3 0,-0.66 0,-1.32 0,-2 6.625,-3 6.625,-3 10,-3 0,-0.66 0,-1.32 0,-2 z"
     fill="#e5e7e8"
     id="path53" />
  <path
     d="m 256,478 c 4.3416,-0.0743 8.68286,-0.12867 13.0249,-0.16479 1.4763,-0.0151 2.95256,-0.0355 4.42871,-0.0615 2.12495,-0.0365 4.24931,-0.0534 6.37451,-0.0667 1.91668,-0.0236 1.91668,-0.0236 3.87208,-0.0476 3.46737,0.35787 4.81666,0.96957 7.2998,3.34058 -4.02014,0.0497 -8.04017,0.0859 -12.06055,0.10986 -1.36559,0.01 -2.73116,0.0236 -4.09668,0.041 -1.97093,0.0245 -3.94202,0.0346 -5.91308,0.0444 -1.77528,0.0157 -1.77528,0.0157 -3.58643,0.0317 C 261.91307,480.9941 259.19696,480.23026 256,479 c 0,-0.33 0,-0.66 0,-1 z"
     fill="#383a3c"
     id="path54" />
  <path
     d="m 295,470 c 1.74627,2.61941 2.38722,4.03825 3,7 -2.0625,2.0625 -2.0625,2.0625 -5,4 -3.8125,-0.25 -3.8125,-0.25 -7,-1 0,-0.33 0,-0.66 0,-1 -13.86,-0.495 -13.86,-0.495 -28,-1 0,-0.33 0,-0.66 0,-1 0.91813,-0.0251 1.83627,-0.0501 2.78223,-0.0759 3.41434,-0.0953 6.82852,-0.1945 10.24267,-0.29638 1.47619,-0.0433 2.95243,-0.0849 4.42871,-0.125 2.12498,-0.058 4.24973,-0.12158 6.37451,-0.18628 1.27779,-0.0367 2.55557,-0.0733 3.87208,-0.11109 3.74261,-0.20414 3.74261,-0.20414 7.2998,-1.20532 1.2966,-2.49034 1.2966,-2.49034 2,-5 z"
     fill="#77797a"
     id="path55" />
  <path
     d="m 401,470 c 2.64,0 5.28,0 8,0 0,2.97 0,5.94 0,9 -2.64,0 -5.28,0 -8,0 0,-2.97 0,-5.94 0,-9 z"
     fill="#f6f6f6"
     id="path56" />
  <path
     d="m 142,396 c -1.5333,3.96328 -3.99251,5.81425 -7.3125,8.375 -5.70307,4.5535 -10.37424,8.47492 -12.6875,15.625 -1.15334,-2.72608 -1.02929,-3.91409 -0.0625,-6.75 2.93692,-4.62787 6.91646,-10.2304 12.31641,-11.98047 0.57621,-0.0889 1.15242,-0.17789 1.74609,-0.26953 0,-0.66 0,-1.32 0,-2 0.66,0 1.32,0 2,0 0,-0.66 0,-1.32 0,-2 2,-1 2,-1 4,-1 z"
     fill="#eceeef"
     id="path57" />
  <path
     d="m 275,503 c 7.26,0 14.52,0 22,0 -0.33,0.99 -0.66,1.98 -1,3 -6.93,0 -13.86,0 -21,0 0,-0.99 0,-1.98 0,-3 z"
     fill="#383b3c"
     id="path58" />
  <path
     d="m 419,470 c 2.64,0 5.28,0 8,0 0,2.64 0,5.28 0,8 -2.64,0 -5.28,0 -8,0 0,-2.64 0,-5.28 0,-8 z"
     fill="#f6f9f6"
     id="path59" />
  <path
     d="m 347,233 c 0,0.66 0,1.32 0,2 -3.46154,3 -3.46154,3 -6,3 0,0.66 0,1.32 0,2 -1.65,0.33 -3.3,0.66 -5,1 -0.0198,0.61931 -0.0396,1.23863 -0.0601,1.87671 -0.0963,2.85396 -0.20554,5.7073 -0.31494,8.56079 -0.0309,0.97389 -0.0619,1.94777 -0.0937,2.95117 C 335.286,260.49958 334.50836,266.07078 333,272 c -0.33,0 -0.66,0 -1,0 -0.125,-6.625 -0.125,-6.625 1,-10 0.0222,-1.61981 -0.008,-3.24063 -0.0703,-4.85938 -0.24389,-15.52153 -0.24389,-15.52153 3.51172,-20.14843 C 339.8191,234.88719 342.93817,233 347,233 Z"
     fill="#eff1f2"
     id="path60" />
  <path
     d="m 260,438 c 4.55556,0.55556 4.55556,0.55556 6,2 0.0408,1.99958 0.0425,4.00045 0,6 -2.33295,0.0424 -4.66703,0.0409 -7,0 -1,-1 -1,-1 -1.1875,-3.4375 C 258,440 258,440 260,438 Z"
     fill="#45494d"
     id="path61" />
  <path
     d="m 363,204 c 0.33,0 0.66,0 1,0 -0.38878,11.66339 -5.89103,20.84304 -14,29 -0.99,-0.33 -1.98,-0.66 -3,-1 0.49629,-0.47566 0.99258,-0.95133 1.50391,-1.44141 C 355.44002,223.4119 361.03006,213.89958 363,204 Z"
     fill="#dbdee1"
     id="path62" />
  <path
     d="m 284,650 c -0.33,3.3 -0.66,6.6 -1,10 -2.64,0 -5.28,0 -8,0 0,-1.65 0,-3.3 0,-5 0.33,0.66 0.66,1.32 1,2 0.66,-0.33 1.32,-0.66 2,-1 0,-0.99 0,-1.98 0,-3 4.33333,-3 4.33333,-3 6,-3 z"
     fill="#99bccd"
     id="path63" />
  <path
     d="m 393,659 c 1.65,0.33 3.3,0.66 5,1 0,0.66 0,1.32 0,2 0.66,0 1.32,0 2,0 0,0.66 0,1.32 0,2 0.5775,0.20625 1.155,0.4125 1.75,0.625 3.18016,1.94343 4.49341,4.11277 6.25,7.375 0.25,3.375 0.25,3.375 0,6 -1.11367,-1.6705 -2.20891,-3.35527 -3.22656,-5.08594 C 401.31723,667.25669 397.91896,663.98953 392,661 c 0.33,-0.66 0.66,-1.32 1,-2 z"
     fill="#e0e2e4"
     id="path64" />
  <path
     d="M 287.5625,512.8125 C 290,513 290,513 291,514 c 0.1875,2.4375 0.1875,2.4375 0,5 -0.66,0.66 -1.32,1.32 -2,2 -2.625,-0.375 -2.625,-0.375 -5,-1 -0.625,-2.375 -0.625,-2.375 -1,-5 2,-2 2,-2 4.5625,-2.1875 z"
     fill="#494d4f"
     id="path65" />
  <path
     d="m 298,458 c 0.66,0.33 1.32,0.66 2,1 0.081,2.27025 0.13918,4.54132 0.1875,6.8125 0.0348,1.26457 0.0696,2.52914 0.10547,3.83203 C 300,473 300,473 298.48828,474.94922 297.99715,475.29598 297.50602,475.64273 297,476 c -1.20287,-6.49551 -0.58444,-11.60986 1,-18 z"
     fill="#45474a"
     id="path66" />
  <path
     d="m 249,488 c 1.485,0.99 1.485,0.99 3,2 0.34058,2.70557 0.34058,2.70557 0.29297,6.10156 -0.01,1.21172 -0.0193,2.42344 -0.0293,3.67188 -0.0251,1.27101 -0.0503,2.54203 -0.0762,3.85156 -0.0135,1.27875 -0.0271,2.5575 -0.041,3.875 -0.0354,3.16708 -0.0849,6.33334 -0.14648,9.5 -0.33,0 -0.66,0 -1,0 -0.33,-4.29 -0.66,-8.58 -1,-13 -0.33,0 -0.66,0 -1,0 0,-5.28 0,-10.56 0,-16 z"
     fill="#2f3132"
     id="path67" />
  <path
     d="m 317,352 c 11.55,0 23.1,0 35,0 0,0.33 0,0.66 0,1 -8.91,0 -17.82,0 -27,0 0,0.66 0,1.32 0,2 -2.97,0 -5.94,0 -9,0 0.33,-0.99 0.66,-1.98 1,-3 z"
     fill="#adcfdf"
     id="path68" />
  <path
     d="m 327,150 c 7.44597,1.7183 13.69281,6.79218 18,13 -2.51673,-1.20803 -4.89906,-2.52586 -7.3125,-3.9375 C 334.22914,157.06384 330.69644,155.50875 327,154 c 0,-1.32 0,-2.64 0,-4 z"
     fill="#7f888f"
     id="path69" />
  <path
     d="m 121,559 c 1.56079,2.34119 2.58328,4.27928 3.6875,6.8125 2.24083,4.55691 5.31311,7.17011 9.3125,10.1875 0.96938,0.78375 1.93875,1.5675 2.9375,2.375 0.68063,0.53625 1.36125,1.0725 2.0625,1.625 -1.32,0 -2.64,0 -4,0 0,-0.66 0,-1.32 0,-2 -0.55688,-0.0825 -1.11375,-0.165 -1.6875,-0.25 -5.43264,-1.76194 -8.67895,-5.85913 -11.3125,-10.75 -0.58509,-2.70117 -0.80891,-5.22919 -1,-8 z"
     fill="#dadcdd"
     id="path70" />
  <path
     d="m 326,425 c 3.44164,1.52962 6.09152,3.62729 9,6 0.66,0.33 1.32,0.66 2,1 0.33,-0.99 0.66,-1.98 1,-3 1.32,2.97 2.64,5.94 4,9 -3.05946,-1.52973 -5.33756,-2.89387 -8,-4.9375 -0.66,-0.50402 -1.32,-1.00805 -2,-1.52734 -0.66,-0.50661 -1.32,-1.01321 -2,-1.53516 -0.7425,-0.51691 -1.485,-1.03383 -2.25,-1.56641 -0.5775,-0.47308 -1.155,-0.94617 -1.75,-1.43359 0,-0.66 0,-1.32 0,-2 z"
     fill="#141b26"
     id="path71" />
  <path
     d="m 352,380 c -3.74258,2.49505 -7.2249,3.19039 -11.5625,4.1875 -0.78053,0.19014 -1.56105,0.38027 -2.36523,0.57617 -5.82221,1.36136 -5.82221,1.36136 -8.07227,0.23633 1.64203,-0.71839 3.28584,-1.43294 4.9375,-2.12891 1.36115,-0.57488 2.71566,-1.16578 4.0625,-1.77343 4.83207,-2.04797 7.87496,-2.27215 13,-1.09766 z"
     fill="#8a949b"
     id="path72" />
  <path
     d="m 163,342 c 0.99,0.33 1.98,0.66 3,1 -0.70125,0.66 -1.4025,1.32 -2.125,2 -4.20647,4.19449 -7.5886,9.0704 -10.875,14 0.42998,-7.02295 3.03458,-11.20902 8.125,-16 0.61875,-0.33 1.2375,-0.66 1.875,-1 z"
     fill="#e7e9eb"
     id="path73" />
  <path
     d="m 497,612 c 0.33,0 0.66,0 1,0 -0.12563,6.03038 -2.03888,8.92156 -6.16406,13.26562 -3.10309,2.93143 -5.3372,4.63446 -9.64844,4.92188 -0.72188,-0.0619 -1.44375,-0.12375 -2.1875,-0.1875 2.02249,-2.02249 3.16521,-2.52558 5.75,-3.5625 5.14167,-2.4725 7.62565,-6.50663 10.25,-11.4375 0.33,-0.99 0.66,-1.98 1,-3 z"
     fill="#dce0e1"
     id="path74" />
  <path
     d="m 153,609 c 0.33,0 0.66,0 1,0 0.17016,0.66387 0.34031,1.32773 0.51563,2.01172 1.69654,6.18156 3.04672,10.84718 8.74218,14.39453 2.22309,1.25441 4.46131,2.44844 6.74219,3.59375 0,0.33 0,0.66 0,1 -1.65,0 -3.3,0 -5,0 0,-0.66 0,-1.32 0,-2 -0.83531,-0.0928 -0.83531,-0.0928 -1.6875,-0.1875 -4.62857,-1.62625 -6.90347,-5.03675 -9.125,-9.25 C 153.03442,615.10327 152.73586,612.60988 153,609 Z"
     fill="#dcdedf"
     id="path75" />
  <path
     d="m 288,250 c 0.33,0 0.66,0 1,0 -0.27861,8.35831 -2.93716,16.5627 -8.69531,22.85156 -0.43055,0.37899 -0.8611,0.75797 -1.30469,1.14844 -0.66,-0.33 -1.32,-0.66 -2,-1 0.56268,-0.60521 0.56268,-0.60521 1.13672,-1.22266 C 283.60133,265.29414 285.64813,257.9922 288,250 Z"
     fill="#eff2f4"
     id="path76" />
  <path
     d="m 482,342 c 4.2397,-0.42397 6.98342,-0.43792 10.3125,2.25 3.88067,3.97092 3.88067,3.97092 4.6875,6.75 -0.375,2.25 -0.375,2.25 -1,4 -0.53625,-0.88687 -1.0725,-1.77375 -1.625,-2.6875 C 491.28023,347.67035 487.17831,344.19082 482,342 Z"
     fill="#e5e8e9"
     id="path77" />
  <path
     d="m 309,308 c 0,3.39453 -0.88533,4.30756 -2.77734,6.97266 -2.64257,4.38175 -4.34791,9.279 -6.22266,14.02734 -1.05197,-2.70961 -1.05926,-3.83223 -0.0742,-6.62109 0.45762,-0.92942 0.91524,-1.85883 1.38672,-2.81641 1.99491,-4.10574 1.99491,-4.10574 3.66797,-8.34766 0.33644,-0.73089 0.67289,-1.46179 1.01953,-2.21484 0.99,-0.33 1.98,-0.66 3,-1 z"
     fill="#b4b8bc"
     id="path78" />
  <path
     d="m 403,287 c 0.33,0 0.66,0 1,0 0.27714,7.09794 0.017,14.13967 -2,21 -0.66,0.33 -1.32,0.66 -2,1 -0.22043,-5.51069 0.0675,-9.77093 2,-15 0.37531,-2.32695 0.71917,-4.65977 1,-7 z"
     fill="#dadddf"
     id="path79" />
  <path
     d="m 154,356 c 0.66,0.66 1.32,1.32 2,2 -0.375,3.625 -0.375,3.625 -1,7 0.66,0 1.32,0 2,0 0,1.32 0,2.64 0,4 -1.32,0.33 -2.64,0.66 -4,1 -0.0271,-1.77075 -0.0464,-3.54162 -0.0625,-5.3125 -0.0116,-0.98613 -0.0232,-1.97227 -0.0352,-2.98828 C 153,359 153,359 154,356 Z"
     fill="#222833"
     id="path80" />
  <path
     d="m 276,274 c 0.99,0.33 1.98,0.66 3,1 -3.96,3.96 -7.92,7.92 -12,12 -0.33,-0.99 -0.66,-1.98 -1,-3 0.66,0 1.32,0 2,0 0.26812,-0.59813 0.53625,-1.19625 0.8125,-1.8125 1.18667,-2.18598 2.28349,-3.60083 4.1875,-5.1875 0.66,0 1.32,0 2,0 0.33,-0.99 0.66,-1.98 1,-3 z"
     fill="#dee0e1"
     id="path81" />
  <path
     d="m 399,666 c 3.25094,1.04495 4.56873,2.59135 6.25,5.4375 C 407,675 407,675 407,678 c -0.66,0 -1.32,0 -2,0 -2,-4 -4,-8 -6,-12 z"
     fill="#232932"
     id="path82" />
  <path
     d="m 285,477 c 2.97,0 5.94,0 9,0 -0.33,1.32 -0.66,2.64 -1,4 -2.31,-0.33 -4.62,-0.66 -7,-1 -0.33,-0.99 -0.66,-1.98 -1,-3 z"
     fill="#4d4f51"
     id="path83" />
  <path
     d="m 298,458 c 0.66,0.33 1.32,0.66 2,1 0,3.96 0,7.92 0,12 -0.99,-0.66 -1.98,-1.32 -3,-2 -0.32813,-2.09375 -0.32813,-2.09375 -0.25,-4.5 0.0155,-0.79406 0.0309,-1.58813 0.0469,-2.40625 C 297,460 297,460 298,458 Z"
     fill="#36383b"
     id="path84" />
  <path
     d="m 130,407 c 0.66,0.66 1.32,1.32 2,2 -1.118,1.33921 -2.24462,2.67123 -3.375,4 -0.62648,0.7425 -1.25297,1.485 -1.89844,2.25 -0.56976,0.5775 -1.13953,1.155 -1.72656,1.75 -0.66,0 -1.32,0 -2,0 1.39373,-4.43459 3.60582,-6.87378 7,-10 z"
     fill="#252b36"
     id="path85" />
  <path
     d="m 142,396 c -1.51672,4.55016 -5.16891,6.50057 -9,9 0.33,-1.32 0.66,-2.64 1,-4 0.66,0 1.32,0 2,0 0,-0.66 0,-1.32 0,-2 0.66,0 1.32,0 2,0 0,-0.66 0,-1.32 0,-2 2,-1 2,-1 4,-1 z"
     fill="#e5e6e7"
     id="path86" />
  <path
     d="m 385,284 c 0,3 0,3 -1.3125,4.60547 -0.55688,0.52207 -1.11375,1.04414 -1.6875,1.58203 -0.55688,0.5298 -1.11375,1.05961 -1.6875,1.60547 -0.43313,0.39832 -0.86625,0.79664 -1.3125,1.20703 -0.99,-0.33 -1.98,-0.66 -3,-1 1.12189,-1.14888 2.24762,-2.29401 3.375,-3.4375 0.62648,-0.63809 1.25297,-1.27617 1.89844,-1.93359 C 383,285 383,285 385,284 Z"
     fill="#212934"
     id="path87" />
  <path
     d="m 328,138 c 4.05606,0.46801 7.46589,0.87953 11,3 0,0.66 0,1.32 0,2 -4.37113,-0.50827 -7.38996,-1.45173 -11,-4 0,-0.33 0,-0.66 0,-1 z"
     fill="#eff0f1"
     id="path88" />
  <path
     d="m 382,354 c 0.33,0 0.66,0 1,0 0.10252,5.12584 0.0359,9.94998 -1,15 -1.90002,-2.79414 -1.99543,-4.05121 -1.6875,-7.5 0.49682,-2.52924 0.99292,-5.01936 1.6875,-7.5 z"
     fill="#232b34"
     id="path89" />
  <path
     d="m 294,136 c 0.33,0.99 0.66,1.98 1,3 -5.445,2.475 -5.445,2.475 -11,5 0,-0.99 0,-1.98 0,-3 6.625,-3 6.625,-3 10,-3 0,-0.66 0,-1.32 0,-2 z"
     fill="#f2f4f5"
     id="path90" />
  <path
     d="m 319,298 c 0,0.66 0,1.32 0,2 -0.66,0 -1.32,0 -2,0 -0.2475,0.5775 -0.495,1.155 -0.75,1.75 -1.41683,2.5503 -3.12628,4.26786 -5.25,6.25 0,-3.54404 0.60989,-4.10268 2.875,-6.6875 0.53367,-0.62262 1.06734,-1.24523 1.61719,-1.88672 C 317,298 317,298 319,298 Z"
     fill="#e3e4e5"
     id="path91" />
  <path
     d="m 271,629 c 0.33,0 0.66,0 1,0 0.16682,4.92127 0.24828,8.50344 -2,13 -0.33,0 -0.66,0 -1,0 0,-2.64 0,-5.28 0,-8 0.66,0 1.32,0 2,0 0,-1.65 0,-3.3 0,-5 z"
     fill="#171d27"
     id="path92" />
  <path
     d="m 360,368 c 0.66,0.33 1.32,0.66 2,1 -0.8125,2.9375 -0.8125,2.9375 -2,6 -0.99,0.33 -1.98,0.66 -3,1 -0.36923,-4.55385 -0.36923,-4.55385 1.5,-6.8125 0.495,-0.39188 0.99,-0.78375 1.5,-1.1875 z"
     fill="#b1bbbf"
     id="path93" />
  <path
     d="m 481,353 c 4.06541,1.35514 4.973,3.30797 7,7 -0.25,2.375 -0.25,2.375 -1,4 -0.4125,-0.94875 -0.825,-1.8975 -1.25,-2.875 -1.75401,-3.13217 -2.45852,-3.99001 -5.75,-5.125 0.33,-0.99 0.66,-1.98 1,-3 z"
     fill="#9fbbc8"
     id="path94" />
  <path
     d="m 165,344 c 0.99,0.33 1.98,0.66 3,1 -0.78375,0.2475 -1.5675,0.495 -2.375,0.75 -2.94817,1.40389 -3.52748,2.25676 -4.625,5.25 -0.99,0 -1.98,0 -3,0 4.75,-5.875 4.75,-5.875 7,-7 z"
     fill="#151d29"
     id="path95" />
  <path
     d="m 274,279 c 0,3.99476 -1.28869,5.14213 -4,8 -2.75,1.3125 -2.75,1.3125 -5,2 0.93591,-1.10552 1.8738,-2.20935 2.8125,-3.3125 0.52207,-0.61488 1.04414,-1.22977 1.58203,-1.86328 C 270.87172,282.14575 272.40039,280.56118 274,279 Z"
     fill="#21262f"
     id="path96" />
  <path
     d="m 137,414 c 0.66,0.33 1.32,0.66 2,1 -0.61875,0.7425 -1.2375,1.485 -1.875,2.25 -1.72937,2.23801 -2.98607,4.1874 -4.125,6.75 -0.8125,-2.1875 -0.8125,-2.1875 -1,-5 2.4375,-2.8125 2.4375,-2.8125 5,-5 z"
     fill="#afc9d7"
     id="path97" />
  <path
     d="m 271,229 c 4.04421,1.77945 7.46078,4.3953 11,7 -0.99,0.33 -1.98,0.66 -3,1 -2.04297,-1.39844 -2.04297,-1.39844 -4.1875,-3.375 -0.71543,-0.64711 -1.43086,-1.29422 -2.16797,-1.96094 C 271,230 271,230 271,229 Z"
     fill="#eef0f1"
     id="path98" />
  <path
     d="m 300,183 c 2.03833,1.27396 4.03852,2.61062 6,4 0,0.66 0,1.32 0,2 -2.375,-0.3125 -2.375,-0.3125 -5,-1 -0.66,-0.99 -1.32,-1.98 -2,-3 0.33,-0.66 0.66,-1.32 1,-2 z"
     fill="#61676e"
     id="path99" />
  <path
     d="m 337,143 c 2.31,0.33 4.62,0.66 7,1 0,0.66 0,1.32 0,2 0.66,0 1.32,0 2,0 -0.33,0.99 -0.66,1.98 -1,3 -1.33598,-0.80815 -2.66873,-1.62163 -4,-2.4375 -0.7425,-0.45246 -1.485,-0.90492 -2.25,-1.37109 -0.5775,-0.39317 -1.155,-0.78633 -1.75,-1.19141 0,-0.33 0,-0.66 0,-1 z"
     fill="#e5e7e9"
     id="path100" />
  <path
     d="m 393,659 c 1.65,0.33 3.3,0.66 5,1 0,0.66 0,1.32 0,2 0.66,0 1.32,0 2,0 -0.33,0.66 -0.66,1.32 -1,2 -2.31,-0.99 -4.62,-1.98 -7,-3 0.33,-0.66 0.66,-1.32 1,-2 z"
     fill="#edefef"
     id="path101" />
  <path
     d="m 371,324 c 2,2 2,2 2.3125,4.5 -0.10312,0.825 -0.20625,1.65 -0.3125,2.5 -0.99,0.66 -1.98,1.32 -3,2 0.33,-2.97 0.66,-5.94 1,-9 z"
     fill="#88939a"
     id="path102" />
  <path
     d="m 373,317 c 0.99,0 1.98,0 3,0 0.33,1.32 0.66,2.64 1,4 -1.65,0.66 -3.3,1.32 -5,2 0.33,-1.98 0.66,-3.96 1,-6 z"
     fill="#8b949a"
     id="path103" />
  <path
     d="m 245,660 c -2.93721,1.523 -5.91686,2.801 -9,4 2.26544,-5.01634 3.72387,-5.24961 9,-4 z"
     fill="#eaeced"
     id="path104" />
  <path
     d="m 380,303 c 0.66,0.33 1.32,0.66 2,1 -0.33,1.65 -0.66,3.3 -1,5 -0.99,0 -1.98,0 -3,0 0.875,-4.875 0.875,-4.875 2,-6 z"
     fill="#a1aab1"
     id="path105" />
  <path
     d="m 283,265 c 0.66,0.33 1.32,0.66 2,1 -2.97,3.96 -2.97,3.96 -6,8 -0.66,-0.33 -1.32,-0.66 -2,-1 1.98,-2.64 3.96,-5.28 6,-8 z"
     fill="#e9ebec"
     id="path106" />
  <path
     d="m 404,669 c 3,1 3,1 4,3 0.04,1.9996 0.0435,4.00047 0,6 -1.99098,-2.98647 -2.94125,-5.59687 -4,-9 z"
     fill="#eef0f0"
     id="path107" />
  <path
     d="m 347,233 c 0,0.66 0,1.32 0,2 -5.27344,3.22266 -5.27344,3.22266 -7,4 -0.66,-0.33 -1.32,-0.66 -2,-1 1.12074,-0.83906 2.24675,-1.67108 3.375,-2.5 0.62648,-0.46406 1.25297,-0.92813 1.89844,-1.40625 C 345,233 345,233 347,233 Z"
     fill="#dadcdf"
     id="path108" />
  <text
     xml:space="preserve"
     style="font-weight:300;font-size:266.667px;font-family:Avenir;-inkscape-font-specification:'Avenir Light';text-align:start;writing-mode:lr-tb;direction:ltr;text-anchor:start;opacity:0.8;fill:#e6b4ea;fill-opacity:0.768398;stroke-width:2.7"
     x="754"
     y="584"
     id="text108"><tspan
       sodipodi:role="line"
       id="tspan108"
       x="754"
       y="584"
       style="fill:#b4deea;fill-opacity:0.768398">DISPLAYHOOKS</tspan></text>
</svg>
